<svg width="33" height="28" viewBox="0 0 33 28" fill="none" xmlns="http://www.w3.org/2000/svg">
<g filter="url(#filter0_d_1_717)">
<path d="M4 9.99985C4 9.43937 4.41801 8.97617 4.96034 8.90287L5.11111 8.89276L24.643 8.89365L17.5867 1.89161C17.1518 1.46019 17.1503 0.759224 17.5833 0.325947C17.9769 -0.0679398 18.5941 -0.104996 19.0298 0.215649L19.1546 0.322577L28.1176 9.21475C28.1749 9.27161 28.2247 9.33316 28.267 9.39815C28.2789 9.41772 28.2911 9.43773 28.3026 9.45814C28.3132 9.47565 28.3227 9.49382 28.3318 9.51219C28.3443 9.53892 28.3566 9.56654 28.3677 9.59472C28.3767 9.61645 28.3843 9.63758 28.3912 9.65888C28.3994 9.68529 28.4073 9.71344 28.4142 9.74202C28.4192 9.76197 28.4233 9.78117 28.4268 9.80045C28.4317 9.82913 28.4359 9.85881 28.4389 9.88885C28.4415 9.91175 28.4431 9.93445 28.4439 9.95717C28.4442 9.97094 28.4444 9.98537 28.4444 9.99985L28.4439 10.0427C28.443 10.0645 28.4415 10.0862 28.4394 10.1078L28.4444 9.99985C28.4444 10.0697 28.438 10.1381 28.4255 10.2043C28.4226 10.2202 28.4192 10.2364 28.4154 10.2526C28.4075 10.2859 28.3984 10.318 28.3879 10.3495C28.3827 10.3651 28.3767 10.3818 28.3703 10.3984C28.3573 10.4317 28.3432 10.4635 28.3277 10.4944C28.3205 10.5089 28.3124 10.5242 28.3039 10.5392C28.2901 10.5638 28.2758 10.5872 28.2606 10.61C28.25 10.6261 28.2381 10.6429 28.2258 10.6594L28.2162 10.6721C28.1863 10.7111 28.1538 10.748 28.119 10.7827L28.1177 10.7837L19.1547 19.6774C18.7199 20.1088 18.0164 20.1074 17.5834 19.6741C17.1897 19.2803 17.1551 18.6651 17.4788 18.2324L17.5866 18.1085L24.64 11.1078L5.11111 11.1069C4.49746 11.1069 4 10.6113 4 9.99985Z" fill="#F23849"/>
</g>
<defs>
<filter id="filter0_d_1_717" x="0" y="0" width="32.4444" height="28" filterUnits="userSpaceOnUse" color-interpolation-filters="sRGB">
<feFlood flood-opacity="0" result="BackgroundImageFix"/>
<feColorMatrix in="SourceAlpha" type="matrix" values="0 0 0 0 0 0 0 0 0 0 0 0 0 0 0 0 0 0 127 0" result="hardAlpha"/>
<feOffset dy="4"/>
<feGaussianBlur stdDeviation="2"/>
<feComposite in2="hardAlpha" operator="out"/>
<feColorMatrix type="matrix" values="0 0 0 0 0 0 0 0 0 0 0 0 0 0 0 0 0 0 0.25 0"/>
<feBlend mode="normal" in2="BackgroundImageFix" result="effect1_dropShadow_1_717"/>
<feBlend mode="normal" in="SourceGraphic" in2="effect1_dropShadow_1_717" result="shape"/>
</filter>
</defs>
</svg>
