<svg width="176" height="176" viewBox="0 0 176 176" fill="none" xmlns="http://www.w3.org/2000/svg">
<path opacity="0.5" d="M51.999 168.001C54.2082 168.001 55.999 169.792 55.999 172.001C55.9989 174.21 54.2081 176.001 51.999 176.001C49.7901 176.001 47.9991 174.21 47.999 172.001C47.999 169.792 49.7901 168.001 51.999 168.001ZM76 168.001C78.2091 168.001 80 169.792 80 172.001C79.9997 174.21 78.2089 176.001 76 176.001C73.791 176.001 72.0003 174.21 72 172.001C72 169.792 73.7909 168.001 76 168.001ZM148 168.001C150.209 168.001 152 169.792 152 172.001C152 174.21 150.209 176.001 148 176.001C145.791 176.001 144 174.21 144 172.001C144 169.792 145.791 168.001 148 168.001ZM4 168C6.20903 168 7.99982 169.791 8 172C8 174.209 6.20914 176 4 176C1.79094 176 0 174.209 0 172C0.000181399 169.791 1.79105 168 4 168ZM28.001 168C30.2099 168 32.0009 169.791 32.001 172C32.001 174.209 30.21 176 28.001 176C25.7918 176 24.001 174.209 24.001 172C24.001 169.791 25.7919 168 28.001 168ZM100 168C102.209 168 104 169.791 104 172C104 174.209 102.209 176 100 176C97.791 176 96 174.209 96 172C96.0001 169.791 97.7911 168 100 168ZM124.001 168C126.21 168 128.001 169.791 128.001 172C128.001 174.209 126.21 176 124.001 176C121.792 176 120.001 174.209 120.001 172C120.001 169.791 121.792 168 124.001 168ZM172 168C174.209 168 176 169.791 176 172C176 174.209 174.209 176 172 176C169.791 176 168 174.209 168 172C168 169.791 169.791 168 172 168ZM4 144.001C6.20914 144.001 8 145.792 8 148.001C7.99985 150.21 6.20905 152.001 4 152.001C1.79113 152.001 0.000148406 150.21 0 148.001C0 145.792 1.79104 144.001 4 144.001ZM52 144.001C54.2089 144.001 55.9999 145.792 56 148.001C56 150.21 54.209 152.001 52 152.001C49.7909 152.001 48 150.21 48 148.001C48.0001 145.792 49.7909 144.001 52 144.001ZM76 144.001C78.2091 144.001 80 145.792 80 148.001C79.9999 150.21 78.2091 152.001 76 152.001C73.791 152.001 72.0001 150.21 72 148.001C72 145.792 73.7909 144.001 76 144.001ZM100.001 144.001C102.21 144.001 104.001 145.792 104.001 148.001C104.001 150.21 102.21 152.001 100.001 152.001C97.792 152.001 96.0012 150.21 96.001 148.001C96.001 145.792 97.7918 144.001 100.001 144.001ZM148 144.001C150.209 144.001 152 145.792 152 148.001C152 150.21 150.209 152.001 148 152.001C145.791 152.001 144 150.21 144 148.001C144 145.792 145.791 144.001 148 144.001ZM172 144.001C174.209 144.001 176 145.792 176 148.001C176 150.21 174.209 152.001 172 152.001C169.791 152.001 168 150.21 168 148.001C168 145.792 169.791 144.001 172 144.001ZM28.001 144C30.2099 144 32.0007 145.791 32.001 148C32.001 150.209 30.2101 152 28.001 152C25.7918 152 24.001 150.209 24.001 148C24.0012 145.791 25.792 144 28.001 144ZM124.001 144C126.21 144 128.001 145.791 128.001 148C128.001 150.209 126.21 152 124.001 152C121.792 152 120.001 150.209 120.001 148C120.001 145.791 121.792 144 124.001 144ZM51.999 120.001C54.2082 120.001 55.999 121.792 55.999 124.001C55.9988 126.21 54.2081 128.001 51.999 128.001C49.7902 128.001 47.9992 126.21 47.999 124.001C47.999 121.792 49.79 120.001 51.999 120.001ZM148 120.001C150.209 120.001 152 121.792 152 124.001C152 126.21 150.209 128.001 148 128.001C145.791 128.001 144 126.21 144 124.001C144 121.792 145.791 120.001 148 120.001ZM4 120C6.20907 120 7.99988 121.791 8 124C8 126.209 6.20914 128 4 128C1.79091 128 0 126.209 0 124C0.000119564 121.791 1.79099 120 4 120ZM28.001 120C30.2099 120 32.001 121.791 32.001 124C32.0009 126.209 30.2099 128 28.001 128C25.7919 128 24.001 126.209 24.001 124C24.001 121.791 25.7918 120 28.001 120ZM76 120C78.2089 120 79.9998 121.791 80 124C80 126.209 78.2091 128 76 128C73.7909 128 72 126.209 72 124C72.0002 121.791 73.791 120 76 120ZM100 120C102.209 120 104 121.791 104 124C104 126.209 102.209 128 100 128C97.791 128 96 126.209 96 124C96.0001 121.791 97.791 120 100 120ZM124.001 120C126.21 120 128.001 121.791 128.001 124C128.001 126.209 126.21 128 124.001 128C121.792 128 120.001 126.209 120.001 124C120.001 121.791 121.792 120 124.001 120ZM172 120C174.209 120 176 121.791 176 124C176 126.209 174.209 128 172 128C169.791 128 168 126.209 168 124C168 121.791 169.791 120 172 120ZM4 96.001C6.20914 96.001 8 97.7918 8 100.001C7.99979 102.21 6.20901 104.001 4 104.001C1.79114 104.001 0.00020612 102.21 0 100.001C0 97.7919 1.79101 96.0012 4 96.001ZM52 96.001C54.2089 96.0012 56 97.792 56 100.001C56 102.21 54.2089 104.001 52 104.001C49.7909 104.001 48 102.21 48 100.001C48 97.7919 49.7909 96.001 52 96.001ZM76 96.001C78.2091 96.001 80 97.7918 80 100.001C79.9999 102.21 78.2091 104.001 76 104.001C73.791 104.001 72.0001 102.21 72 100.001C72 97.7919 73.7909 96.001 76 96.001ZM148 96.001C150.209 96.0011 152 97.7919 152 100.001C152 102.21 150.209 104.001 148 104.001C145.791 104.001 144 102.21 144 100.001C144 97.7918 145.791 96.001 148 96.001ZM172 96.001C174.209 96.001 176 97.7918 176 100.001C176 102.21 174.209 104.001 172 104.001C169.791 104.001 168 102.21 168 100.001C168 97.7919 169.791 96.0011 172 96.001ZM28.001 96C30.2099 96.0001 32.0008 97.7911 32.001 100C32.001 102.209 30.21 104 28.001 104C25.7918 104 24.001 102.209 24.001 100C24.0011 97.791 25.7919 96 28.001 96ZM100.001 96C102.21 96.0002 104.001 97.7912 104.001 100C104.001 102.209 102.21 104 100.001 104C97.7918 104 96.001 102.209 96.001 100C96.0012 97.7911 97.792 96 100.001 96ZM124.001 96C126.21 96 128.001 97.791 128.001 100C128.001 102.209 126.21 104 124.001 104C121.792 104 120.001 102.209 120.001 100C120.001 97.791 121.792 96 124.001 96ZM51.999 72.001C54.2082 72.001 55.999 73.7918 55.999 76.001C55.9988 78.2099 54.208 80.001 51.999 80.001C49.7902 80.0008 47.9993 78.2098 47.999 76.001C47.999 73.7919 49.79 72.0011 51.999 72.001ZM4 72C6.2091 72 7.99993 73.7909 8 76C8 78.2091 6.20914 80 4 80C1.79089 80 0 78.2091 0 76C6.59692e-05 73.7909 1.79093 72 4 72ZM28.001 72C30.2099 72.0002 32.001 73.791 32.001 76C32.0009 78.2089 30.2099 79.9998 28.001 80C25.7919 80 24.0011 78.2091 24.001 76C24.001 73.7909 25.7918 72 28.001 72ZM76 72C78.2089 72.0001 79.9999 73.7911 80 76C80 78.2091 78.209 79.9999 76 80C73.7909 80 72 78.2091 72 76C72.0001 73.791 73.791 72 76 72ZM100 72C102.209 72 104 73.7909 104 76C104 78.2091 102.209 80 100 80C97.791 79.9999 96 78.2091 96 76C96 73.7909 97.791 72.0001 100 72ZM124.001 72C126.21 72.0001 128.001 73.7909 128.001 76C128.001 78.2089 126.21 79.9999 124.001 80C121.792 80 120.001 78.209 120.001 76C120.001 73.7909 121.792 72 124.001 72ZM148 72C150.209 72.0003 152 73.7912 152 76C152 78.209 150.209 79.9997 148 80C145.791 80 144 78.2091 144 76C144 73.7911 145.791 72 148 72ZM172 72C174.209 72 176 73.7909 176 76C176 78.2091 174.209 80 172 80C169.791 80 168 78.2091 168 76C168 73.7909 169.791 72 172 72ZM4 48.001C6.20914 48.001 8 49.7918 8 52.001C7.99974 54.2099 6.20898 56.001 4 56.001C1.79115 56.0008 0.000261774 54.2098 0 52.001C0 49.7919 1.79099 48.0011 4 48.001ZM52 48.001C54.2089 48.0012 56 49.792 56 52.001C56 54.2099 54.2089 56.0007 52 56.001C49.7909 56.001 48 54.2101 48 52.001C48 49.7918 49.7909 48.001 52 48.001ZM76 48.001C78.2091 48.001 80 49.7918 80 52.001C79.9998 54.21 78.209 56.001 76 56.001C73.791 56.001 72.0002 54.21 72 52.001C72 49.7918 73.7909 48.001 76 48.001ZM148 48.001C150.209 48.0011 152 49.7919 152 52.001C152 54.2099 150.209 56.0008 148 56.001C145.791 56.001 144 54.21 144 52.001C144 49.7918 145.791 48.001 148 48.001ZM172 48.001C174.209 48.001 176 49.7918 176 52.001C176 54.2099 174.209 56.001 172 56.001C169.791 56.0009 168 54.2098 168 52.001C168 49.7919 169.791 48.0011 172 48.001ZM28.001 48C30.2099 48.0001 32.0009 49.791 32.001 52C32.001 54.2091 30.21 55.9999 28.001 56C25.7918 56 24.001 54.2091 24.001 52C24.0011 49.791 25.7919 48 28.001 48ZM100 48C102.209 48 104 49.791 104 52C104 54.2091 102.209 56 100 56C97.7911 55.9997 96 54.209 96 52C96.0002 49.7912 97.7912 48.0003 100 48ZM124.001 48C126.21 48 128.001 49.7909 128.001 52C128.001 54.2091 126.21 56 124.001 56C121.792 56 120.001 54.2091 120.001 52C120.001 49.7909 121.792 48 124.001 48ZM4 24C6.20913 24 7.99999 25.7909 8 28C8 30.2091 6.20914 32 4 32C1.79086 32 0 30.2091 0 28C1.03082e-05 25.7909 1.79087 24 4 24ZM28 24C30.2091 24 32 25.7909 32 28C31.9999 30.209 30.2091 32 28 32C25.7912 31.9997 24.0001 30.2089 24 28C24 25.791 25.7911 24.0003 28 24ZM51.999 24C54.208 24 55.9988 25.7911 55.999 28C55.999 30.2091 54.2082 32 51.999 32C49.79 31.9999 47.999 30.2091 47.999 28C47.9993 25.7911 49.7901 24.0001 51.999 24ZM76 24C78.209 24.0001 79.9999 25.791 80 28C80 30.209 78.209 31.9999 76 32C73.7909 32 72 30.2091 72 28C72.0001 25.7909 73.7909 24 76 24ZM100 24C102.209 24 104 25.7909 104 28C104 30.2091 102.209 32 100 32C97.791 31.9999 96.0001 30.209 96 28C96 25.7909 97.791 24.0001 100 24ZM124.001 24C126.21 24.0002 128.001 25.791 128.001 28C128.001 30.2089 126.21 31.9998 124.001 32C121.792 32 120.001 30.209 120.001 28C120.001 25.7909 121.792 24 124.001 24ZM147.999 24C150.208 24 151.999 25.791 151.999 28C151.999 30.2091 150.208 32 147.999 32C145.79 31.9998 143.999 30.209 143.999 28C143.999 25.7912 145.79 24.0002 147.999 24ZM172 24C174.209 24 176 25.7909 176 28C176 30.2091 174.209 32 172 32C169.791 32 168 30.2091 168 28C168 25.7909 169.791 24 172 24ZM51.999 0.000976562C54.2082 0.000976562 55.999 1.79184 55.999 4.00098C55.9989 6.21004 54.2081 8.00098 51.999 8.00098C49.7901 8.00074 47.9991 6.2099 47.999 4.00098C47.999 1.79199 49.7901 0.00121776 51.999 0.000976562ZM76 0.000976562C78.2091 0.00100543 80 1.79186 80 4.00098C79.9998 6.2099 78.209 8.00095 76 8.00098C73.791 8.00098 72.0002 6.20992 72 4.00098C72 1.79184 73.7909 0.000976562 76 0.000976562ZM148 0.000976562C150.209 0.00114974 152 1.79194 152 4.00098C152 6.20988 150.209 8.0008 148 8.00098C145.791 8.00098 144 6.20999 144 4.00098C144 1.79184 145.791 0.000976562 148 0.000976562ZM4 0C6.20901 0 7.99979 1.79104 8 4C8 6.20914 6.20914 8 4 8C1.79096 7.99988 0 6.20907 0 4C0.000211154 1.79111 1.79109 0.000116072 4 0ZM28.001 0C30.2099 0.000155637 32.0009 1.79101 32.001 4C32.001 6.20904 30.21 7.99984 28.001 8C25.7918 8 24.001 6.20914 24.001 4C24.001 1.79091 25.7919 0 28.001 0ZM100 0C102.209 0 104 1.79099 104 4C104 6.20914 102.209 8 100 8C97.7911 7.99977 96 6.209 96 4C96.0001 1.79113 97.7911 0.000226736 100 0ZM124.001 0C126.21 4.53553e-05 128.001 1.79089 128.001 4C128.001 6.20911 126.21 7.99995 124.001 8C121.792 8 120.001 6.20914 120.001 4C120.001 1.79086 121.792 0 124.001 0ZM172 0C174.209 0 176 1.79106 176 4C176 6.20914 174.209 8 172 8C169.791 7.99992 168 6.20909 168 4C168 1.79111 169.791 8.24483e-05 172 0Z" fill="url(#paint0_linear_1_356)"/>
<defs>
<linearGradient id="paint0_linear_1_356" x1="-2.86847e-07" y1="176.001" x2="176.001" y2="0.000976278" gradientUnits="userSpaceOnUse">
<stop stop-color="#E5E5E5"/>
<stop offset="1" stop-color="#E5E5E5" stop-opacity="0"/>
</linearGradient>
</defs>
</svg>
