<svg width="80" height="80" viewBox="0 0 80 80" fill="none" xmlns="http://www.w3.org/2000/svg">
<path d="M0 12.8C0 8.31958 0 6.07937 0.871948 4.36808C1.63893 2.86278 2.86278 1.63893 4.36808 0.871948C6.07937 0 8.31958 0 12.8 0H48C59.201 0 64.8016 0 69.0798 2.17987C72.843 4.09734 75.9027 7.15695 77.8201 10.9202C80 15.1984 80 20.799 80 32V67.2C80 71.6804 80 73.9206 79.1281 75.6319C78.3611 77.1372 77.1372 78.3611 75.6319 79.1281C73.9206 80 71.6804 80 67.2 80H12.8C8.31958 80 6.07937 80 4.36808 79.1281C2.86278 78.3611 1.63893 77.1372 0.871948 75.6319C0 73.9206 0 71.6804 0 67.2V12.8Z" fill="#F23849"/>
<path d="M56.902 58.5186C56.3769 58.3944 55.8513 58.7205 55.7278 59.2456L54.657 63.7996C54.5335 64.3246 54.8591 64.8504 55.3841 64.9737C55.4593 64.9915 55.5345 64.9999 55.6085 64.9999C56.0514 64.9999 56.4525 64.6966 56.5583 64.2467L57.6291 59.6927C57.7525 59.1677 57.427 58.6419 56.902 58.5186Z" fill="white"/>
<path d="M52.6743 24.6935C52.6743 22.1782 53.383 19.7237 54.7237 17.5953L55.4155 16.4972C55.7029 16.0409 55.5661 15.438 55.1098 15.1505C54.6533 14.8629 54.0505 14.9999 53.763 15.4562L53.0712 16.5543C51.5338 18.9948 50.7212 21.8093 50.7212 24.6935C50.7212 27.7737 51.5339 30.7738 53.0778 33.4235H26.3999C27.9439 30.7738 28.7565 27.7736 28.7565 24.6935C28.7565 21.8093 27.9439 18.9949 26.4065 16.5543L25.7147 15.4562C25.4272 14.9999 24.8244 14.8629 24.3679 15.1505C23.9116 15.438 23.7747 16.0409 24.0622 16.4972L24.754 17.5953C26.0947 19.7237 26.8034 22.1782 26.8034 24.6935C26.8034 27.6817 25.9421 30.5851 24.3125 33.09C21.4912 37.4268 20 42.4538 20 47.6275C20 49.6792 20.2381 51.7321 20.7077 53.7295L23.1806 64.2468C23.2864 64.6966 23.6874 65 24.1304 65C24.2045 65 24.2797 64.9915 24.3549 64.9738C24.8799 64.8504 25.2054 64.3247 25.0819 63.7997L22.609 53.2825C22.1738 51.4315 21.9531 49.5289 21.9531 47.6276C21.9531 46.2356 22.0704 44.8553 22.2997 43.4986L36.6015 52.4548V64.0233C36.6015 64.5626 37.0388 64.9999 37.578 64.9999C38.1173 64.9999 38.5546 64.5626 38.5546 64.0233V52.8906H40.9231V64.0233C40.9231 64.5626 41.3604 64.9999 41.8997 64.9999C42.4389 64.9999 42.8762 64.5626 42.8762 64.0233V52.4548L57.178 43.4986C57.4073 44.8553 57.5246 46.2356 57.5246 47.6276C57.5246 48.6714 57.4574 49.7253 57.3252 50.7602C57.2567 51.2953 57.6349 51.7843 58.1699 51.8528C58.212 51.8583 58.2537 51.8608 58.295 51.8608C58.7792 51.8608 59.1994 51.5009 59.2624 51.0081C59.4053 49.8912 59.4776 48.754 59.4776 47.6277C59.4776 42.454 57.9863 37.427 55.1651 33.0902C53.5357 30.5851 52.6743 27.6816 52.6743 24.6935ZM41.6191 50.9375H37.8587L22.7318 41.4646C23.2781 39.342 24.1078 37.2961 25.2049 35.3767H54.273C55.3701 37.2962 56.1997 39.342 56.746 41.4646L41.6191 50.9375Z" fill="white"/>
<path d="M64.0234 23.2528H58.6175L59.1309 22.7394C59.5123 22.358 59.5123 21.7396 59.1309 21.3582C58.7495 20.977 58.1313 20.977 57.7498 21.3582L55.5692 23.5388C55.1879 23.9201 55.1879 24.5385 55.5692 24.9199L57.7498 27.1005C57.9405 27.2911 58.1904 27.3865 58.4403 27.3865C58.6902 27.3865 58.9401 27.2911 59.1308 27.1005C59.5122 26.7192 59.5122 26.1008 59.1308 25.7193L58.6174 25.2059H64.0233C64.5626 25.2059 64.9999 24.7686 64.9999 24.2293C64.9999 23.69 64.5627 23.2528 64.0234 23.2528Z" fill="white"/>
<path d="M20.8692 25.7194C20.4878 26.1008 20.4878 26.7192 20.8692 27.1006C21.0599 27.2912 21.3098 27.3866 21.5597 27.3866C21.8096 27.3866 22.0595 27.2912 22.2502 27.1006L24.4308 24.92C24.8121 24.5387 24.8121 23.9203 24.4308 23.5389L22.2502 21.3582C21.8688 20.977 21.2506 20.977 20.8691 21.3582C20.4877 21.7396 20.4877 22.3579 20.8691 22.7394L21.3825 23.2528H15.9766C15.4373 23.2528 15 23.6901 15 24.2294C15 24.7687 15.4373 25.206 15.9766 25.206H21.3825L20.8692 25.7194Z" fill="white"/>
<path d="M40.0001 29.2578C40.2569 29.2578 40.5089 29.1534 40.6904 28.9716C40.872 28.7901 40.9766 28.5381 40.9766 28.2813C40.9766 28.0244 40.8721 27.7725 40.6904 27.5909C40.5089 27.4092 40.2569 27.3047 40.0001 27.3047C39.7432 27.3047 39.4913 27.4091 39.3096 27.5909C39.128 27.7725 39.0235 28.0244 39.0235 28.2813C39.0235 28.5381 39.1279 28.7901 39.3096 28.9716C39.4913 29.1534 39.7432 29.2578 40.0001 29.2578Z" fill="white"/>
<path d="M57.6836 54.2158C57.4258 54.2158 57.1748 54.3194 56.9932 54.5021C56.8105 54.6836 56.707 54.9355 56.707 55.1924C56.707 55.4493 56.8105 55.7002 56.9932 55.8828C57.1748 56.0645 57.4259 56.1689 57.6836 56.1689C57.9404 56.1689 58.1924 56.0646 58.3731 55.8828C58.5557 55.7002 58.6593 55.4493 58.6593 55.1924C58.6593 54.9355 58.5557 54.6836 58.3731 54.5021C58.1924 54.3194 57.9404 54.2158 57.6836 54.2158Z" fill="white"/>
</svg>
