<svg width="1920" height="940" viewBox="0 0 1920 940" fill="none" xmlns="http://www.w3.org/2000/svg">
<rect width="1920" height="940" fill="#28282A"/>
<g opacity="0.1">
<mask id="path-2-outside-1_1462_15" maskUnits="userSpaceOnUse" x="43" y="178" width="164" height="600" fill="black">
<rect fill="white" x="43" y="178" width="164" height="600"/>
<path d="M203 666.938C198.104 668.434 193.072 670.134 187.904 672.038C182.736 673.806 177.568 675.574 172.4 677.342L172.4 732.422C177.568 734.19 182.736 736.026 187.904 737.93C193.072 739.698 198.104 741.33 203 742.826L203 775.874C187.768 770.57 173.692 765.538 160.772 760.778C147.852 756.018 135.68 751.394 124.256 746.906C112.832 742.282 102.02 737.794 91.82 733.442C81.484 728.954 71.42 724.33 61.628 719.57L61.628 689.174C71.42 684.55 81.484 679.994 91.82 675.506C102.02 671.018 112.832 666.53 124.256 662.042C135.68 657.418 147.852 652.726 160.772 647.966C173.692 643.206 187.768 638.174 203 632.87L203 666.938ZM93.656 705.086C95.696 705.766 98.484 706.786 102.02 708.146C105.556 709.506 109.636 711.07 114.26 712.838C118.884 714.606 123.984 716.578 129.56 718.754C135.136 720.794 140.984 722.902 147.104 725.078L147.104 684.89C140.984 687.066 135.136 689.174 129.56 691.214C123.984 693.254 118.884 695.226 114.26 697.13C109.636 698.898 105.556 700.462 102.02 701.822C98.484 703.182 95.696 704.27 93.656 705.086ZM148.532 547.863C128.948 547.863 119.156 555.071 119.156 569.487C119.156 572.615 119.564 575.743 120.38 578.871C121.196 581.863 122.216 584.311 123.44 586.215L178.724 586.215C178.996 584.719 179.268 582.815 179.54 580.503C179.676 578.191 179.744 575.675 179.744 572.955C179.744 564.659 176.888 558.403 171.176 554.187C165.464 549.971 157.916 547.863 148.532 547.863ZM149.348 516.855C157.916 516.855 165.668 518.147 172.604 520.731C179.54 523.179 185.456 526.783 190.352 531.543C195.248 536.303 199.056 542.151 201.776 549.087C204.36 556.023 205.652 563.911 205.652 572.751C205.652 576.423 205.448 580.299 205.04 584.379C204.768 588.323 204.36 592.267 203.816 596.211C203.272 600.019 202.66 603.691 201.98 607.227C201.164 610.763 200.348 613.891 199.532 616.611L49.592 616.611L44.696 586.215L98.144 586.215C96.648 582.815 95.492 579.279 94.676 575.607C93.86 571.935 93.452 567.991 93.452 563.775C93.452 556.159 94.812 549.427 97.532 543.579C100.116 537.731 103.856 532.835 108.752 528.891C113.648 524.947 119.564 521.955 126.5 519.915C133.3 517.875 140.916 516.855 149.348 516.855ZM149.144 393.125C157.576 393.125 165.328 394.349 172.4 396.797C179.336 399.245 185.32 402.781 190.352 407.405C195.248 412.029 199.056 417.605 201.776 424.133C204.496 430.525 205.856 437.733 205.856 445.757C205.856 453.645 204.496 460.853 201.776 467.381C199.056 473.773 195.248 479.281 190.352 483.905C185.32 488.529 179.336 492.133 172.4 494.717C165.328 497.301 157.576 498.593 149.144 498.593C140.712 498.593 133.028 497.301 126.092 494.717C119.156 491.997 113.24 488.325 108.344 483.701C103.448 478.941 99.64 473.365 96.92 466.973C94.2 460.445 92.84 453.373 92.84 445.757C92.84 438.005 94.2 430.933 96.92 424.541C99.64 418.013 103.448 412.437 108.344 407.813C113.24 403.189 119.156 399.585 126.092 397.001C133.028 394.417 140.712 393.125 149.144 393.125ZM149.144 424.133C139.76 424.133 132.416 426.037 127.112 429.845C121.672 433.517 118.952 438.821 118.952 445.757C118.952 452.693 121.672 458.065 127.112 461.873C132.416 465.681 139.76 467.585 149.144 467.585C158.528 467.585 166.008 465.681 171.584 461.873C177.024 458.065 179.744 452.693 179.744 445.757C179.744 438.821 177.024 433.517 171.584 429.845C166.008 426.037 158.528 424.133 149.144 424.133ZM199.328 277.983C200.824 283.151 202.184 289.815 203.408 297.975C204.768 306.135 205.448 314.703 205.448 323.679C205.448 332.791 204.224 340.407 201.776 346.527C199.328 352.511 195.928 357.271 191.576 360.807C187.088 364.343 181.784 366.859 175.664 368.355C169.544 369.851 162.812 370.599 155.468 370.599L95.696 370.599L95.696 340.203L151.796 340.203C161.588 340.203 168.66 338.911 173.012 336.327C177.364 333.743 179.54 328.915 179.54 321.843C179.54 319.667 179.472 317.355 179.336 314.907C179.064 312.459 178.792 310.283 178.52 308.379L95.696 308.379L95.696 277.983L199.328 277.983ZM68.972 250.47L64.076 220.074L95.696 220.074L95.696 183.558L120.992 183.558L120.992 220.074L158.732 220.074C165.124 220.074 170.224 218.986 174.032 216.81C177.84 214.498 179.744 209.942 179.744 203.142C179.744 199.878 179.472 196.546 178.928 193.146C178.248 189.61 177.364 186.414 176.276 183.558L199.94 179.274C201.436 182.946 202.728 187.026 203.816 191.514C204.904 196.002 205.448 201.51 205.448 208.038C205.448 216.334 204.36 223.202 202.184 228.642C199.872 234.082 196.744 238.434 192.8 241.698C188.72 244.962 183.824 247.274 178.112 248.634C172.4 249.858 166.076 250.47 159.14 250.47L68.972 250.47Z"/>
</mask>
<path d="M203 666.938L203.292 667.894L204 667.678L204 666.938L203 666.938ZM187.904 672.038L188.228 672.984L188.239 672.98L188.25 672.976L187.904 672.038ZM172.4 677.342L172.076 676.396L171.4 676.627L171.4 677.342L172.4 677.342ZM172.4 732.422L171.4 732.422L171.4 733.137L172.076 733.368L172.4 732.422ZM187.904 737.93L187.558 738.868L187.569 738.872L187.58 738.876L187.904 737.93ZM203 742.826L204 742.826L204 742.086L203.292 741.87L203 742.826ZM203 775.874L202.671 776.818L204 777.281L204 775.874L203 775.874ZM160.772 760.778L161.118 759.84L160.772 760.778ZM124.256 746.906L123.881 747.833L123.89 747.837L124.256 746.906ZM91.82 733.442L91.4217 734.359L91.4276 734.362L91.82 733.442ZM61.628 719.57L60.628 719.57L60.628 720.196L61.1908 720.469L61.628 719.57ZM61.628 689.174L61.201 688.27L60.628 688.54L60.628 689.174L61.628 689.174ZM91.82 675.506L92.2183 676.423L92.2227 676.421L91.82 675.506ZM124.256 662.042L124.622 662.973L124.631 662.969L124.256 662.042ZM160.772 647.966L161.118 648.904V648.904L160.772 647.966ZM203 632.87L204 632.87L204 631.463L202.671 631.926L203 632.87ZM93.656 705.086L93.2846 704.158L90.7499 705.171L93.3398 706.035L93.656 705.086ZM102.02 708.146L101.661 709.079V709.079L102.02 708.146ZM114.26 712.838L113.903 713.772V713.772L114.26 712.838ZM129.56 718.754L129.196 719.686L129.206 719.69L129.216 719.693L129.56 718.754ZM147.104 725.078L146.769 726.02L148.104 726.495L148.104 725.078L147.104 725.078ZM147.104 684.89L148.104 684.89L148.104 683.473L146.769 683.948L147.104 684.89ZM129.56 691.214L129.904 692.153V692.153L129.56 691.214ZM114.26 697.13L114.617 698.064L114.629 698.06L114.641 698.055L114.26 697.13ZM102.02 701.822L101.661 700.889V700.889L102.02 701.822ZM203 666.938L202.708 665.982C197.792 667.484 192.743 669.19 187.558 671.1L187.904 672.038L188.25 672.976C193.401 671.078 198.415 669.385 203.292 667.894L203 666.938ZM187.904 672.038L187.58 671.092C187.57 671.095 187.56 671.099 187.55 671.102C187.54 671.106 187.53 671.109 187.52 671.113C187.51 671.116 187.5 671.12 187.489 671.123C187.479 671.126 187.469 671.13 187.459 671.133C187.449 671.137 187.439 671.14 187.429 671.144C187.419 671.147 187.409 671.151 187.399 671.154C187.389 671.157 187.378 671.161 187.368 671.164C187.358 671.168 187.348 671.171 187.338 671.175C187.328 671.178 187.318 671.182 187.308 671.185C187.298 671.189 187.288 671.192 187.277 671.195C187.267 671.199 187.257 671.202 187.247 671.206C187.237 671.209 187.227 671.213 187.217 671.216C187.207 671.22 187.197 671.223 187.187 671.227C187.177 671.23 187.166 671.233 187.156 671.237C187.146 671.24 187.136 671.244 187.126 671.247C187.116 671.251 187.106 671.254 187.096 671.258C187.086 671.261 187.076 671.265 187.066 671.268C187.055 671.271 187.045 671.275 187.035 671.278C187.025 671.282 187.015 671.285 187.005 671.289C186.995 671.292 186.985 671.296 186.975 671.299C186.965 671.303 186.954 671.306 186.944 671.309C186.934 671.313 186.924 671.316 186.914 671.32C186.904 671.323 186.894 671.327 186.884 671.33C186.874 671.334 186.864 671.337 186.854 671.341C186.843 671.344 186.833 671.347 186.823 671.351C186.813 671.354 186.803 671.358 186.793 671.361C186.783 671.365 186.773 671.368 186.763 671.372C186.753 671.375 186.743 671.378 186.732 671.382C186.722 671.385 186.712 671.389 186.702 671.392C186.692 671.396 186.682 671.399 186.672 671.403C186.662 671.406 186.652 671.41 186.642 671.413C186.632 671.416 186.621 671.42 186.611 671.423C186.601 671.427 186.591 671.43 186.581 671.434C186.571 671.437 186.561 671.441 186.551 671.444C186.541 671.448 186.531 671.451 186.52 671.454C186.51 671.458 186.5 671.461 186.49 671.465C186.48 671.468 186.47 671.472 186.46 671.475C186.45 671.479 186.44 671.482 186.43 671.486C186.42 671.489 186.409 671.492 186.399 671.496C186.389 671.499 186.379 671.503 186.369 671.506C186.359 671.51 186.349 671.513 186.339 671.517C186.329 671.52 186.319 671.524 186.309 671.527C186.298 671.53 186.288 671.534 186.278 671.537C186.268 671.541 186.258 671.544 186.248 671.548C186.238 671.551 186.228 671.555 186.218 671.558C186.208 671.562 186.197 671.565 186.187 671.568C186.177 671.572 186.167 671.575 186.157 671.579C186.147 671.582 186.137 671.586 186.127 671.589C186.117 671.593 186.107 671.596 186.097 671.599C186.086 671.603 186.076 671.606 186.066 671.61C186.056 671.613 186.046 671.617 186.036 671.62C186.026 671.624 186.016 671.627 186.006 671.631C185.996 671.634 185.986 671.637 185.975 671.641C185.965 671.644 185.955 671.648 185.945 671.651C185.935 671.655 185.925 671.658 185.915 671.662C185.905 671.665 185.895 671.669 185.885 671.672C185.874 671.675 185.864 671.679 185.854 671.682C185.844 671.686 185.834 671.689 185.824 671.693C185.814 671.696 185.804 671.7 185.794 671.703C185.784 671.707 185.774 671.71 185.763 671.713C185.753 671.717 185.743 671.72 185.733 671.724C185.723 671.727 185.713 671.731 185.703 671.734C185.693 671.738 185.683 671.741 185.673 671.745C185.663 671.748 185.652 671.751 185.642 671.755C185.632 671.758 185.622 671.762 185.612 671.765C185.602 671.769 185.592 671.772 185.582 671.776C185.572 671.779 185.562 671.783 185.551 671.786C185.541 671.789 185.531 671.793 185.521 671.796C185.511 671.8 185.501 671.803 185.491 671.807C185.481 671.81 185.471 671.814 185.461 671.817C185.451 671.82 185.44 671.824 185.43 671.827C185.42 671.831 185.41 671.834 185.4 671.838C185.39 671.841 185.38 671.845 185.37 671.848C185.36 671.852 185.35 671.855 185.339 671.858C185.329 671.862 185.319 671.865 185.309 671.869C185.299 671.872 185.289 671.876 185.279 671.879C185.269 671.883 185.259 671.886 185.249 671.89C185.239 671.893 185.228 671.896 185.218 671.9C185.208 671.903 185.198 671.907 185.188 671.91C185.178 671.914 185.168 671.917 185.158 671.921C185.148 671.924 185.138 671.928 185.128 671.931C185.117 671.934 185.107 671.938 185.097 671.941C185.087 671.945 185.077 671.948 185.067 671.952C185.057 671.955 185.047 671.959 185.037 671.962C185.027 671.966 185.016 671.969 185.006 671.972C184.996 671.976 184.986 671.979 184.976 671.983C184.966 671.986 184.956 671.99 184.946 671.993C184.936 671.997 184.926 672 184.916 672.004C184.905 672.007 184.895 672.01 184.885 672.014C184.875 672.017 184.865 672.021 184.855 672.024C184.845 672.028 184.835 672.031 184.825 672.035C184.815 672.038 184.805 672.041 184.794 672.045C184.784 672.048 184.774 672.052 184.764 672.055C184.754 672.059 184.744 672.062 184.734 672.066C184.724 672.069 184.714 672.073 184.704 672.076C184.693 672.079 184.683 672.083 184.673 672.086C184.663 672.09 184.653 672.093 184.643 672.097C184.633 672.1 184.623 672.104 184.613 672.107C184.603 672.111 184.593 672.114 184.582 672.117C184.572 672.121 184.562 672.124 184.552 672.128C184.542 672.131 184.532 672.135 184.522 672.138C184.512 672.142 184.502 672.145 184.492 672.149C184.482 672.152 184.471 672.155 184.461 672.159C184.451 672.162 184.441 672.166 184.431 672.169C184.421 672.173 184.411 672.176 184.401 672.18C184.391 672.183 184.381 672.187 184.37 672.19C184.36 672.193 184.35 672.197 184.34 672.2C184.33 672.204 184.32 672.207 184.31 672.211C184.3 672.214 184.29 672.218 184.28 672.221C184.27 672.225 184.259 672.228 184.249 672.231C184.239 672.235 184.229 672.238 184.219 672.242C184.209 672.245 184.199 672.249 184.189 672.252C184.179 672.256 184.169 672.259 184.159 672.262C184.148 672.266 184.138 672.269 184.128 672.273C184.118 672.276 184.108 672.28 184.098 672.283C184.088 672.287 184.078 672.29 184.068 672.294C184.058 672.297 184.048 672.3 184.037 672.304C184.027 672.307 184.017 672.311 184.007 672.314C183.997 672.318 183.987 672.321 183.977 672.325C183.967 672.328 183.957 672.332 183.947 672.335C183.936 672.338 183.926 672.342 183.916 672.345C183.906 672.349 183.896 672.352 183.886 672.356C183.876 672.359 183.866 672.363 183.856 672.366C183.846 672.37 183.836 672.373 183.825 672.376C183.815 672.38 183.805 672.383 183.795 672.387C183.785 672.39 183.775 672.394 183.765 672.397C183.755 672.401 183.745 672.404 183.735 672.408C183.725 672.411 183.714 672.414 183.704 672.418C183.694 672.421 183.684 672.425 183.674 672.428C183.664 672.432 183.654 672.435 183.644 672.439C183.634 672.442 183.624 672.446 183.613 672.449C183.603 672.452 183.593 672.456 183.583 672.459C183.573 672.463 183.563 672.466 183.553 672.47C183.543 672.473 183.533 672.477 183.523 672.48C183.513 672.483 183.502 672.487 183.492 672.49C183.482 672.494 183.472 672.497 183.462 672.501C183.452 672.504 183.442 672.508 183.432 672.511C183.422 672.515 183.412 672.518 183.402 672.521C183.391 672.525 183.381 672.528 183.371 672.532C183.361 672.535 183.351 672.539 183.341 672.542C183.331 672.546 183.321 672.549 183.311 672.553C183.301 672.556 183.29 672.559 183.28 672.563C183.27 672.566 183.26 672.57 183.25 672.573C183.24 672.577 183.23 672.58 183.22 672.584C183.21 672.587 183.2 672.591 183.19 672.594C183.179 672.597 183.169 672.601 183.159 672.604C183.149 672.608 183.139 672.611 183.129 672.615C183.119 672.618 183.109 672.622 183.099 672.625C183.089 672.629 183.078 672.632 183.068 672.635C183.058 672.639 183.048 672.642 183.038 672.646C183.028 672.649 183.018 672.653 183.008 672.656C182.998 672.66 182.988 672.663 182.978 672.667C182.967 672.67 182.957 672.673 182.947 672.677C182.937 672.68 182.927 672.684 182.917 672.687C182.907 672.691 182.897 672.694 182.887 672.698C182.877 672.701 182.867 672.705 182.856 672.708C182.846 672.711 182.836 672.715 182.826 672.718C182.816 672.722 182.806 672.725 182.796 672.729C182.786 672.732 182.776 672.736 182.766 672.739C182.755 672.742 182.745 672.746 182.735 672.749C182.725 672.753 182.715 672.756 182.705 672.76C182.695 672.763 182.685 672.767 182.675 672.77C182.665 672.774 182.655 672.777 182.644 672.78C182.634 672.784 182.624 672.787 182.614 672.791C182.604 672.794 182.594 672.798 182.584 672.801C182.574 672.805 182.564 672.808 182.554 672.812C182.544 672.815 182.533 672.818 182.523 672.822C182.513 672.825 182.503 672.829 182.493 672.832C182.483 672.836 182.473 672.839 182.463 672.843C182.453 672.846 182.443 672.85 182.432 672.853C182.422 672.856 182.412 672.86 182.402 672.863C182.392 672.867 182.382 672.87 182.372 672.874C182.362 672.877 182.352 672.881 182.342 672.884C182.332 672.888 182.321 672.891 182.311 672.894C182.301 672.898 182.291 672.901 182.281 672.905C182.271 672.908 182.261 672.912 182.251 672.915C182.241 672.919 182.231 672.922 182.221 672.926C182.21 672.929 182.2 672.932 182.19 672.936C182.18 672.939 182.17 672.943 182.16 672.946C182.15 672.95 182.14 672.953 182.13 672.957C182.12 672.96 182.109 672.963 182.099 672.967C182.089 672.97 182.079 672.974 182.069 672.977C182.059 672.981 182.049 672.984 182.039 672.988C182.029 672.991 182.019 672.995 182.009 672.998C181.998 673.001 181.988 673.005 181.978 673.008C181.968 673.012 181.958 673.015 181.948 673.019C181.938 673.022 181.928 673.026 181.918 673.029C181.908 673.033 181.898 673.036 181.887 673.039C181.877 673.043 181.867 673.046 181.857 673.05C181.847 673.053 181.837 673.057 181.827 673.06C181.817 673.064 181.807 673.067 181.797 673.071C181.787 673.074 181.776 673.077 181.766 673.081C181.756 673.084 181.746 673.088 181.736 673.091C181.726 673.095 181.716 673.098 181.706 673.102C181.696 673.105 181.686 673.109 181.675 673.112C181.665 673.115 181.655 673.119 181.645 673.122C181.635 673.126 181.625 673.129 181.615 673.133C181.605 673.136 181.595 673.14 181.585 673.143C181.575 673.147 181.564 673.15 181.554 673.153C181.544 673.157 181.534 673.16 181.524 673.164C181.514 673.167 181.504 673.171 181.494 673.174C181.484 673.178 181.474 673.181 181.464 673.184C181.453 673.188 181.443 673.191 181.433 673.195C181.423 673.198 181.413 673.202 181.403 673.205C181.393 673.209 181.383 673.212 181.373 673.216C181.363 673.219 181.352 673.222 181.342 673.226C181.332 673.229 181.322 673.233 181.312 673.236C181.302 673.24 181.292 673.243 181.282 673.247C181.272 673.25 181.262 673.254 181.252 673.257C181.241 673.26 181.231 673.264 181.221 673.267C181.211 673.271 181.201 673.274 181.191 673.278C181.181 673.281 181.171 673.285 181.161 673.288C181.151 673.292 181.141 673.295 181.13 673.298C181.12 673.302 181.11 673.305 181.1 673.309C181.09 673.312 181.08 673.316 181.07 673.319C181.06 673.323 181.05 673.326 181.04 673.33C181.029 673.333 181.019 673.336 181.009 673.34C180.999 673.343 180.989 673.347 180.979 673.35C180.969 673.354 180.959 673.357 180.949 673.361C180.939 673.364 180.929 673.368 180.918 673.371C180.908 673.374 180.898 673.378 180.888 673.381C180.878 673.385 180.868 673.388 180.858 673.392C180.848 673.395 180.838 673.399 180.828 673.402C180.818 673.405 180.807 673.409 180.797 673.412C180.787 673.416 180.777 673.419 180.767 673.423C180.757 673.426 180.747 673.43 180.737 673.433C180.727 673.437 180.717 673.44 180.706 673.443C180.696 673.447 180.686 673.45 180.676 673.454C180.666 673.457 180.656 673.461 180.646 673.464C180.636 673.468 180.626 673.471 180.616 673.475C180.606 673.478 180.595 673.481 180.585 673.485C180.575 673.488 180.565 673.492 180.555 673.495C180.545 673.499 180.535 673.502 180.525 673.506C180.515 673.509 180.505 673.513 180.495 673.516C180.484 673.519 180.474 673.523 180.464 673.526C180.454 673.53 180.444 673.533 180.434 673.537C180.424 673.54 180.414 673.544 180.404 673.547C180.394 673.551 180.383 673.554 180.373 673.557C180.363 673.561 180.353 673.564 180.343 673.568C180.333 673.571 180.323 673.575 180.313 673.578C180.303 673.582 180.293 673.585 180.283 673.589C180.272 673.592 180.262 673.595 180.252 673.599C180.242 673.602 180.232 673.606 180.222 673.609C180.212 673.613 180.202 673.616 180.192 673.62C180.182 673.623 180.171 673.626 180.161 673.63C180.151 673.633 180.141 673.637 180.131 673.64C180.121 673.644 180.111 673.647 180.101 673.651C180.091 673.654 180.081 673.658 180.071 673.661C180.06 673.664 180.05 673.668 180.04 673.671C180.03 673.675 180.02 673.678 180.01 673.682C180 673.685 179.99 673.689 179.98 673.692C179.97 673.696 179.96 673.699 179.949 673.702C179.939 673.706 179.929 673.709 179.919 673.713C179.909 673.716 179.899 673.72 179.889 673.723C179.879 673.727 179.869 673.73 179.859 673.734C179.848 673.737 179.838 673.74 179.828 673.744C179.818 673.747 179.808 673.751 179.798 673.754C179.788 673.758 179.778 673.761 179.768 673.765C179.758 673.768 179.748 673.772 179.737 673.775C179.727 673.778 179.717 673.782 179.707 673.785C179.697 673.789 179.687 673.792 179.677 673.796C179.667 673.799 179.657 673.803 179.647 673.806C179.637 673.81 179.626 673.813 179.616 673.816C179.606 673.82 179.596 673.823 179.586 673.827C179.576 673.83 179.566 673.834 179.556 673.837C179.546 673.841 179.536 673.844 179.525 673.847C179.515 673.851 179.505 673.854 179.495 673.858C179.485 673.861 179.475 673.865 179.465 673.868C179.455 673.872 179.445 673.875 179.435 673.879C179.425 673.882 179.414 673.885 179.404 673.889C179.394 673.892 179.384 673.896 179.374 673.899C179.364 673.903 179.354 673.906 179.344 673.91C179.334 673.913 179.324 673.917 179.314 673.92C179.303 673.923 179.293 673.927 179.283 673.93C179.273 673.934 179.263 673.937 179.253 673.941C179.243 673.944 179.233 673.948 179.223 673.951C179.213 673.955 179.203 673.958 179.192 673.961C179.182 673.965 179.172 673.968 179.162 673.972C179.152 673.975 179.142 673.979 179.132 673.982C179.122 673.986 179.112 673.989 179.102 673.993C179.091 673.996 179.081 673.999 179.071 674.003C179.061 674.006 179.051 674.01 179.041 674.013C179.031 674.017 179.021 674.02 179.011 674.024C179.001 674.027 178.991 674.031 178.98 674.034C178.97 674.037 178.96 674.041 178.95 674.044C178.94 674.048 178.93 674.051 178.92 674.055C178.91 674.058 178.9 674.062 178.89 674.065C178.88 674.068 178.869 674.072 178.859 674.075C178.849 674.079 178.839 674.082 178.829 674.086C178.819 674.089 178.809 674.093 178.799 674.096C178.789 674.1 178.779 674.103 178.768 674.106C178.758 674.11 178.748 674.113 178.738 674.117C178.728 674.12 178.718 674.124 178.708 674.127C178.698 674.131 178.688 674.134 178.678 674.138C178.668 674.141 178.657 674.144 178.647 674.148C178.637 674.151 178.627 674.155 178.617 674.158C178.607 674.162 178.597 674.165 178.587 674.169C178.577 674.172 178.567 674.176 178.557 674.179C178.546 674.182 178.536 674.186 178.526 674.189C178.516 674.193 178.506 674.196 178.496 674.2C178.486 674.203 178.476 674.207 178.466 674.21C178.456 674.214 178.445 674.217 178.435 674.22C178.425 674.224 178.415 674.227 178.405 674.231C178.395 674.234 178.385 674.238 178.375 674.241C178.365 674.245 178.355 674.248 178.345 674.252C178.334 674.255 178.324 674.258 178.314 674.262C178.304 674.265 178.294 674.269 178.284 674.272C178.274 674.276 178.264 674.279 178.254 674.283C178.244 674.286 178.234 674.289 178.223 674.293C178.213 674.296 178.203 674.3 178.193 674.303C178.183 674.307 178.173 674.31 178.163 674.314C178.153 674.317 178.143 674.321 178.133 674.324C178.122 674.327 178.112 674.331 178.102 674.334C178.092 674.338 178.082 674.341 178.072 674.345C178.062 674.348 178.052 674.352 178.042 674.355C178.032 674.359 178.022 674.362 178.011 674.365C178.001 674.369 177.991 674.372 177.981 674.376C177.971 674.379 177.961 674.383 177.951 674.386C177.941 674.39 177.931 674.393 177.921 674.397C177.91 674.4 177.9 674.403 177.89 674.407C177.88 674.41 177.87 674.414 177.86 674.417C177.85 674.421 177.84 674.424 177.83 674.428C177.82 674.431 177.81 674.435 177.799 674.438C177.789 674.441 177.779 674.445 177.769 674.448C177.759 674.452 177.749 674.455 177.739 674.459C177.729 674.462 177.719 674.466 177.709 674.469C177.699 674.473 177.688 674.476 177.678 674.479C177.668 674.483 177.658 674.486 177.648 674.49C177.638 674.493 177.628 674.497 177.618 674.5C177.608 674.504 177.598 674.507 177.587 674.51C177.577 674.514 177.567 674.517 177.557 674.521C177.547 674.524 177.537 674.528 177.527 674.531C177.517 674.535 177.507 674.538 177.497 674.542C177.487 674.545 177.476 674.548 177.466 674.552C177.456 674.555 177.446 674.559 177.436 674.562C177.426 674.566 177.416 674.569 177.406 674.573C177.396 674.576 177.386 674.58 177.376 674.583C177.365 674.586 177.355 674.59 177.345 674.593C177.335 674.597 177.325 674.6 177.315 674.604C177.305 674.607 177.295 674.611 177.285 674.614C177.275 674.618 177.264 674.621 177.254 674.624C177.244 674.628 177.234 674.631 177.224 674.635C177.214 674.638 177.204 674.642 177.194 674.645C177.184 674.649 177.174 674.652 177.164 674.656C177.153 674.659 177.143 674.662 177.133 674.666C177.123 674.669 177.113 674.673 177.103 674.676C177.093 674.68 177.083 674.683 177.073 674.687C177.063 674.69 177.053 674.693 177.042 674.697C177.032 674.7 177.022 674.704 177.012 674.707C177.002 674.711 176.992 674.714 176.982 674.718C176.972 674.721 176.962 674.725 176.952 674.728C176.941 674.731 176.931 674.735 176.921 674.738C176.911 674.742 176.901 674.745 176.891 674.749C176.881 674.752 176.871 674.756 176.861 674.759C176.851 674.763 176.841 674.766 176.83 674.769C176.82 674.773 176.81 674.776 176.8 674.78C176.79 674.783 176.78 674.787 176.77 674.79C176.76 674.794 176.75 674.797 176.74 674.801C176.73 674.804 176.719 674.807 176.709 674.811C176.699 674.814 176.689 674.818 176.679 674.821C176.669 674.825 176.659 674.828 176.649 674.832C176.639 674.835 176.629 674.839 176.619 674.842C176.608 674.845 176.598 674.849 176.588 674.852C176.578 674.856 176.568 674.859 176.558 674.863C176.548 674.866 176.538 674.87 176.528 674.873C176.518 674.877 176.507 674.88 176.497 674.883C176.487 674.887 176.477 674.89 176.467 674.894C176.457 674.897 176.447 674.901 176.437 674.904C176.427 674.908 176.417 674.911 176.407 674.914C176.396 674.918 176.386 674.921 176.376 674.925C176.366 674.928 176.356 674.932 176.346 674.935C176.336 674.939 176.326 674.942 176.316 674.946C176.306 674.949 176.296 674.952 176.285 674.956C176.275 674.959 176.265 674.963 176.255 674.966C176.245 674.97 176.235 674.973 176.225 674.977C176.215 674.98 176.205 674.984 176.195 674.987C176.184 674.99 176.174 674.994 176.164 674.997C176.154 675.001 176.144 675.004 176.134 675.008C176.124 675.011 176.114 675.015 176.104 675.018C176.094 675.022 176.084 675.025 176.073 675.028C176.063 675.032 176.053 675.035 176.043 675.039C176.033 675.042 176.023 675.046 176.013 675.049C176.003 675.053 175.993 675.056 175.983 675.06C175.973 675.063 175.962 675.066 175.952 675.07C175.942 675.073 175.932 675.077 175.922 675.08C175.912 675.084 175.902 675.087 175.892 675.091C175.882 675.094 175.872 675.098 175.861 675.101C175.851 675.104 175.841 675.108 175.831 675.111C175.821 675.115 175.811 675.118 175.801 675.122C175.791 675.125 175.781 675.129 175.771 675.132C175.761 675.136 175.75 675.139 175.74 675.142C175.73 675.146 175.72 675.149 175.71 675.153C175.7 675.156 175.69 675.16 175.68 675.163C175.67 675.167 175.66 675.17 175.65 675.173C175.639 675.177 175.629 675.18 175.619 675.184C175.609 675.187 175.599 675.191 175.589 675.194C175.579 675.198 175.569 675.201 175.559 675.205C175.549 675.208 175.538 675.211 175.528 675.215C175.518 675.218 175.508 675.222 175.498 675.225C175.488 675.229 175.478 675.232 175.468 675.236C175.458 675.239 175.448 675.243 175.438 675.246C175.427 675.249 175.417 675.253 175.407 675.256C175.397 675.26 175.387 675.263 175.377 675.267C175.367 675.27 175.357 675.274 175.347 675.277C175.337 675.281 175.326 675.284 175.316 675.287C175.306 675.291 175.296 675.294 175.286 675.298C175.276 675.301 175.266 675.305 175.256 675.308C175.246 675.312 175.236 675.315 175.226 675.319C175.215 675.322 175.205 675.325 175.195 675.329C175.185 675.332 175.175 675.336 175.165 675.339C175.155 675.343 175.145 675.346 175.135 675.35C175.125 675.353 175.115 675.357 175.104 675.36C175.094 675.363 175.084 675.367 175.074 675.37C175.064 675.374 175.054 675.377 175.044 675.381C175.034 675.384 175.024 675.388 175.014 675.391C175.003 675.394 174.993 675.398 174.983 675.401C174.973 675.405 174.963 675.408 174.953 675.412C174.943 675.415 174.933 675.419 174.923 675.422C174.913 675.426 174.903 675.429 174.892 675.432C174.882 675.436 174.872 675.439 174.862 675.443C174.852 675.446 174.842 675.45 174.832 675.453C174.822 675.457 174.812 675.46 174.802 675.464C174.792 675.467 174.781 675.47 174.771 675.474C174.761 675.477 174.751 675.481 174.741 675.484C174.731 675.488 174.721 675.491 174.711 675.495C174.701 675.498 174.691 675.502 174.68 675.505C174.67 675.508 174.66 675.512 174.65 675.515C174.64 675.519 174.63 675.522 174.62 675.526C174.61 675.529 174.6 675.533 174.59 675.536C174.58 675.54 174.569 675.543 174.559 675.546C174.549 675.55 174.539 675.553 174.529 675.557C174.519 675.56 174.509 675.564 174.499 675.567C174.489 675.571 174.479 675.574 174.469 675.578C174.458 675.581 174.448 675.584 174.438 675.588C174.428 675.591 174.418 675.595 174.408 675.598C174.398 675.602 174.388 675.605 174.378 675.609C174.368 675.612 174.357 675.615 174.347 675.619C174.337 675.622 174.327 675.626 174.317 675.629C174.307 675.633 174.297 675.636 174.287 675.64C174.277 675.643 174.267 675.647 174.257 675.65C174.246 675.653 174.236 675.657 174.226 675.66C174.216 675.664 174.206 675.667 174.196 675.671C174.186 675.674 174.176 675.678 174.166 675.681C174.156 675.685 174.146 675.688 174.135 675.691C174.125 675.695 174.115 675.698 174.105 675.702C174.095 675.705 174.085 675.709 174.075 675.712C174.065 675.716 174.055 675.719 174.045 675.723C174.035 675.726 174.024 675.729 174.014 675.733C174.004 675.736 173.994 675.74 173.984 675.743C173.974 675.747 173.964 675.75 173.954 675.754C173.944 675.757 173.934 675.761 173.923 675.764C173.913 675.767 173.903 675.771 173.893 675.774C173.883 675.778 173.873 675.781 173.863 675.785C173.853 675.788 173.843 675.792 173.833 675.795C173.823 675.799 173.812 675.802 173.802 675.805C173.792 675.809 173.782 675.812 173.772 675.816C173.762 675.819 173.752 675.823 173.742 675.826C173.732 675.83 173.722 675.833 173.712 675.836C173.701 675.84 173.691 675.843 173.681 675.847C173.671 675.85 173.661 675.854 173.651 675.857C173.641 675.861 173.631 675.864 173.621 675.868C173.611 675.871 173.6 675.874 173.59 675.878C173.58 675.881 173.57 675.885 173.56 675.888C173.55 675.892 173.54 675.895 173.53 675.899C173.52 675.902 173.51 675.906 173.5 675.909C173.489 675.912 173.479 675.916 173.469 675.919C173.459 675.923 173.449 675.926 173.439 675.93C173.429 675.933 173.419 675.937 173.409 675.94C173.399 675.944 173.389 675.947 173.378 675.95C173.368 675.954 173.358 675.957 173.348 675.961C173.338 675.964 173.328 675.968 173.318 675.971C173.308 675.975 173.298 675.978 173.288 675.982C173.277 675.985 173.267 675.988 173.257 675.992C173.247 675.995 173.237 675.999 173.227 676.002C173.217 676.006 173.207 676.009 173.197 676.013C173.187 676.016 173.177 676.02 173.166 676.023C173.156 676.026 173.146 676.03 173.136 676.033C173.126 676.037 173.116 676.04 173.106 676.044C173.096 676.047 173.086 676.051 173.076 676.054C173.065 676.057 173.055 676.061 173.045 676.064C173.035 676.068 173.025 676.071 173.015 676.075C173.005 676.078 172.995 676.082 172.985 676.085C172.975 676.089 172.965 676.092 172.954 676.095C172.944 676.099 172.934 676.102 172.924 676.106C172.914 676.109 172.904 676.113 172.894 676.116C172.884 676.12 172.874 676.123 172.864 676.127C172.854 676.13 172.843 676.133 172.833 676.137C172.823 676.14 172.813 676.144 172.803 676.147C172.793 676.151 172.783 676.154 172.773 676.158C172.763 676.161 172.753 676.165 172.742 676.168C172.732 676.171 172.722 676.175 172.712 676.178C172.702 676.182 172.692 676.185 172.682 676.189C172.672 676.192 172.662 676.196 172.652 676.199C172.642 676.203 172.631 676.206 172.621 676.209C172.611 676.213 172.601 676.216 172.591 676.22C172.581 676.223 172.571 676.227 172.561 676.23C172.551 676.234 172.541 676.237 172.531 676.241C172.52 676.244 172.51 676.247 172.5 676.251C172.49 676.254 172.48 676.258 172.47 676.261C172.46 676.265 172.45 676.268 172.44 676.272C172.43 676.275 172.419 676.278 172.409 676.282C172.399 676.285 172.389 676.289 172.379 676.292C172.369 676.296 172.359 676.299 172.349 676.303C172.339 676.306 172.329 676.31 172.319 676.313C172.308 676.316 172.298 676.32 172.288 676.323C172.278 676.327 172.268 676.33 172.258 676.334C172.248 676.337 172.238 676.341 172.228 676.344C172.218 676.348 172.208 676.351 172.197 676.354C172.187 676.358 172.177 676.361 172.167 676.365C172.157 676.368 172.147 676.372 172.137 676.375C172.127 676.379 172.117 676.382 172.107 676.386C172.096 676.389 172.086 676.392 172.076 676.396L172.4 677.342L172.724 678.288C172.734 678.285 172.744 678.281 172.754 678.278C172.764 678.274 172.774 678.271 172.784 678.268C172.794 678.264 172.804 678.261 172.815 678.257C172.825 678.254 172.835 678.25 172.845 678.247C172.855 678.243 172.865 678.24 172.875 678.236C172.885 678.233 172.895 678.23 172.905 678.226C172.915 678.223 172.926 678.219 172.936 678.216C172.946 678.212 172.956 678.209 172.966 678.205C172.976 678.202 172.986 678.198 172.996 678.195C173.006 678.192 173.016 678.188 173.027 678.185C173.037 678.181 173.047 678.178 173.057 678.174C173.067 678.171 173.077 678.167 173.087 678.164C173.097 678.16 173.107 678.157 173.117 678.154C173.127 678.15 173.138 678.147 173.148 678.143C173.158 678.14 173.168 678.136 173.178 678.133C173.188 678.129 173.198 678.126 173.208 678.122C173.218 678.119 173.228 678.116 173.238 678.112C173.249 678.109 173.259 678.105 173.269 678.102C173.279 678.098 173.289 678.095 173.299 678.091C173.309 678.088 173.319 678.084 173.329 678.081C173.339 678.078 173.35 678.074 173.36 678.071C173.37 678.067 173.38 678.064 173.39 678.06C173.4 678.057 173.41 678.053 173.42 678.05C173.43 678.047 173.44 678.043 173.45 678.04C173.461 678.036 173.471 678.033 173.481 678.029C173.491 678.026 173.501 678.022 173.511 678.019C173.521 678.015 173.531 678.012 173.541 678.009C173.551 678.005 173.561 678.002 173.572 677.998C173.582 677.995 173.592 677.991 173.602 677.988C173.612 677.984 173.622 677.981 173.632 677.977C173.642 677.974 173.652 677.971 173.662 677.967C173.673 677.964 173.683 677.96 173.693 677.957C173.703 677.953 173.713 677.95 173.723 677.946C173.733 677.943 173.743 677.939 173.753 677.936C173.763 677.933 173.773 677.929 173.784 677.926C173.794 677.922 173.804 677.919 173.814 677.915C173.824 677.912 173.834 677.908 173.844 677.905C173.854 677.901 173.864 677.898 173.874 677.895C173.884 677.891 173.895 677.888 173.905 677.884C173.915 677.881 173.925 677.877 173.935 677.874C173.945 677.87 173.955 677.867 173.965 677.863C173.975 677.86 173.985 677.857 173.995 677.853C174.006 677.85 174.016 677.846 174.026 677.843C174.036 677.839 174.046 677.836 174.056 677.832C174.066 677.829 174.076 677.826 174.086 677.822C174.096 677.819 174.107 677.815 174.117 677.812C174.127 677.808 174.137 677.805 174.147 677.801C174.157 677.798 174.167 677.794 174.177 677.791C174.187 677.788 174.197 677.784 174.207 677.781C174.218 677.777 174.228 677.774 174.238 677.77C174.248 677.767 174.258 677.763 174.268 677.76C174.278 677.756 174.288 677.753 174.298 677.75C174.308 677.746 174.318 677.743 174.329 677.739C174.339 677.736 174.349 677.732 174.359 677.729C174.369 677.725 174.379 677.722 174.389 677.718C174.399 677.715 174.409 677.712 174.419 677.708C174.43 677.705 174.44 677.701 174.45 677.698C174.46 677.694 174.47 677.691 174.48 677.687C174.49 677.684 174.5 677.68 174.51 677.677C174.52 677.674 174.53 677.67 174.541 677.667C174.551 677.663 174.561 677.66 174.571 677.656C174.581 677.653 174.591 677.649 174.601 677.646C174.611 677.642 174.621 677.639 174.631 677.636C174.641 677.632 174.652 677.629 174.662 677.625C174.672 677.622 174.682 677.618 174.692 677.615C174.702 677.611 174.712 677.608 174.722 677.605C174.732 677.601 174.742 677.598 174.753 677.594C174.763 677.591 174.773 677.587 174.783 677.584C174.793 677.58 174.803 677.577 174.813 677.573C174.823 677.57 174.833 677.567 174.843 677.563C174.853 677.56 174.864 677.556 174.874 677.553C174.884 677.549 174.894 677.546 174.904 677.542C174.914 677.539 174.924 677.535 174.934 677.532C174.944 677.529 174.954 677.525 174.964 677.522C174.975 677.518 174.985 677.515 174.995 677.511C175.005 677.508 175.015 677.504 175.025 677.501C175.035 677.497 175.045 677.494 175.055 677.491C175.065 677.487 175.076 677.484 175.086 677.48C175.096 677.477 175.106 677.473 175.116 677.47C175.126 677.466 175.136 677.463 175.146 677.459C175.156 677.456 175.166 677.453 175.176 677.449C175.187 677.446 175.197 677.442 175.207 677.439C175.217 677.435 175.227 677.432 175.237 677.428C175.247 677.425 175.257 677.421 175.267 677.418C175.277 677.415 175.288 677.411 175.298 677.408C175.308 677.404 175.318 677.401 175.328 677.397C175.338 677.394 175.348 677.39 175.358 677.387C175.368 677.384 175.378 677.38 175.388 677.377C175.399 677.373 175.409 677.37 175.419 677.366C175.429 677.363 175.439 677.359 175.449 677.356C175.459 677.352 175.469 677.349 175.479 677.346C175.489 677.342 175.499 677.339 175.51 677.335C175.52 677.332 175.53 677.328 175.54 677.325C175.55 677.321 175.56 677.318 175.57 677.314C175.58 677.311 175.59 677.308 175.6 677.304C175.611 677.301 175.621 677.297 175.631 677.294C175.641 677.29 175.651 677.287 175.661 677.283C175.671 677.28 175.681 677.276 175.691 677.273C175.701 677.27 175.711 677.266 175.722 677.263C175.732 677.259 175.742 677.256 175.752 677.252C175.762 677.249 175.772 677.245 175.782 677.242C175.792 677.238 175.802 677.235 175.812 677.232C175.822 677.228 175.833 677.225 175.843 677.221C175.853 677.218 175.863 677.214 175.873 677.211C175.883 677.207 175.893 677.204 175.903 677.2C175.913 677.197 175.923 677.194 175.934 677.19C175.944 677.187 175.954 677.183 175.964 677.18C175.974 677.176 175.984 677.173 175.994 677.169C176.004 677.166 176.014 677.163 176.024 677.159C176.034 677.156 176.045 677.152 176.055 677.149C176.065 677.145 176.075 677.142 176.085 677.138C176.095 677.135 176.105 677.131 176.115 677.128C176.125 677.125 176.135 677.121 176.145 677.118C176.156 677.114 176.166 677.111 176.176 677.107C176.186 677.104 176.196 677.1 176.206 677.097C176.216 677.093 176.226 677.09 176.236 677.087C176.246 677.083 176.257 677.08 176.267 677.076C176.277 677.073 176.287 677.069 176.297 677.066C176.307 677.062 176.317 677.059 176.327 677.055C176.337 677.052 176.347 677.049 176.357 677.045C176.368 677.042 176.378 677.038 176.388 677.035C176.398 677.031 176.408 677.028 176.418 677.024C176.428 677.021 176.438 677.017 176.448 677.014C176.458 677.011 176.468 677.007 176.479 677.004C176.489 677 176.499 676.997 176.509 676.993C176.519 676.99 176.529 676.986 176.539 676.983C176.549 676.979 176.559 676.976 176.569 676.973C176.579 676.969 176.59 676.966 176.6 676.962C176.61 676.959 176.62 676.955 176.63 676.952C176.64 676.948 176.65 676.945 176.66 676.941C176.67 676.938 176.68 676.935 176.691 676.931C176.701 676.928 176.711 676.924 176.721 676.921C176.731 676.917 176.741 676.914 176.751 676.91C176.761 676.907 176.771 676.904 176.781 676.9C176.791 676.897 176.802 676.893 176.812 676.89C176.822 676.886 176.832 676.883 176.842 676.879C176.852 676.876 176.862 676.872 176.872 676.869C176.882 676.866 176.892 676.862 176.902 676.859C176.913 676.855 176.923 676.852 176.933 676.848C176.943 676.845 176.953 676.841 176.963 676.838C176.973 676.834 176.983 676.831 176.993 676.828C177.003 676.824 177.014 676.821 177.024 676.817C177.034 676.814 177.044 676.81 177.054 676.807C177.064 676.803 177.074 676.8 177.084 676.796C177.094 676.793 177.104 676.79 177.114 676.786C177.125 676.783 177.135 676.779 177.145 676.776C177.155 676.772 177.165 676.769 177.175 676.765C177.185 676.762 177.195 676.758 177.205 676.755C177.215 676.752 177.225 676.748 177.236 676.745C177.246 676.741 177.256 676.738 177.266 676.734C177.276 676.731 177.286 676.727 177.296 676.724C177.306 676.72 177.316 676.717 177.326 676.714C177.337 676.71 177.347 676.707 177.357 676.703C177.367 676.7 177.377 676.696 177.387 676.693C177.397 676.689 177.407 676.686 177.417 676.683C177.427 676.679 177.437 676.676 177.448 676.672C177.458 676.669 177.468 676.665 177.478 676.662C177.488 676.658 177.498 676.655 177.508 676.651C177.518 676.648 177.528 676.645 177.538 676.641C177.548 676.638 177.559 676.634 177.569 676.631C177.579 676.627 177.589 676.624 177.599 676.62C177.609 676.617 177.619 676.613 177.629 676.61C177.639 676.607 177.649 676.603 177.66 676.6C177.67 676.596 177.68 676.593 177.69 676.589C177.7 676.586 177.71 676.582 177.72 676.579C177.73 676.575 177.74 676.572 177.75 676.569C177.76 676.565 177.771 676.562 177.781 676.558C177.791 676.555 177.801 676.551 177.811 676.548C177.821 676.544 177.831 676.541 177.841 676.537C177.851 676.534 177.861 676.531 177.872 676.527C177.882 676.524 177.892 676.52 177.902 676.517C177.912 676.513 177.922 676.51 177.932 676.506C177.942 676.503 177.952 676.499 177.962 676.496C177.972 676.493 177.983 676.489 177.993 676.486C178.003 676.482 178.013 676.479 178.023 676.475C178.033 676.472 178.043 676.468 178.053 676.465C178.063 676.462 178.073 676.458 178.083 676.455C178.094 676.451 178.104 676.448 178.114 676.444C178.124 676.441 178.134 676.437 178.144 676.434C178.154 676.43 178.164 676.427 178.174 676.424C178.184 676.42 178.195 676.417 178.205 676.413C178.215 676.41 178.225 676.406 178.235 676.403C178.245 676.399 178.255 676.396 178.265 676.392C178.275 676.389 178.285 676.386 178.295 676.382C178.306 676.379 178.316 676.375 178.326 676.372C178.336 676.368 178.346 676.365 178.356 676.361C178.366 676.358 178.376 676.354 178.386 676.351C178.396 676.348 178.406 676.344 178.417 676.341C178.427 676.337 178.437 676.334 178.447 676.33C178.457 676.327 178.467 676.323 178.477 676.32C178.487 676.316 178.497 676.313 178.507 676.31C178.518 676.306 178.528 676.303 178.538 676.299C178.548 676.296 178.558 676.292 178.568 676.289C178.578 676.285 178.588 676.282 178.598 676.279C178.608 676.275 178.618 676.272 178.629 676.268C178.639 676.265 178.649 676.261 178.659 676.258C178.669 676.254 178.679 676.251 178.689 676.247C178.699 676.244 178.709 676.241 178.719 676.237C178.729 676.234 178.74 676.23 178.75 676.227C178.76 676.223 178.77 676.22 178.78 676.216C178.79 676.213 178.8 676.209 178.81 676.206C178.82 676.203 178.83 676.199 178.841 676.196C178.851 676.192 178.861 676.189 178.871 676.185C178.881 676.182 178.891 676.178 178.901 676.175C178.911 676.171 178.921 676.168 178.931 676.165C178.941 676.161 178.952 676.158 178.962 676.154C178.972 676.151 178.982 676.147 178.992 676.144C179.002 676.14 179.012 676.137 179.022 676.133C179.032 676.13 179.042 676.127 179.052 676.123C179.063 676.12 179.073 676.116 179.083 676.113C179.093 676.109 179.103 676.106 179.113 676.102C179.123 676.099 179.133 676.095 179.143 676.092C179.153 676.089 179.163 676.085 179.174 676.082C179.184 676.078 179.194 676.075 179.204 676.071C179.214 676.068 179.224 676.064 179.234 676.061C179.244 676.058 179.254 676.054 179.264 676.051C179.275 676.047 179.285 676.044 179.295 676.04C179.305 676.037 179.315 676.033 179.325 676.03C179.335 676.026 179.345 676.023 179.355 676.02C179.365 676.016 179.375 676.013 179.386 676.009C179.396 676.006 179.406 676.002 179.416 675.999C179.426 675.995 179.436 675.992 179.446 675.988C179.456 675.985 179.466 675.982 179.476 675.978C179.486 675.975 179.497 675.971 179.507 675.968C179.517 675.964 179.527 675.961 179.537 675.957C179.547 675.954 179.557 675.95 179.567 675.947C179.577 675.944 179.587 675.94 179.598 675.937C179.608 675.933 179.618 675.93 179.628 675.926C179.638 675.923 179.648 675.919 179.658 675.916C179.668 675.912 179.678 675.909 179.688 675.906C179.698 675.902 179.709 675.899 179.719 675.895C179.729 675.892 179.739 675.888 179.749 675.885C179.759 675.881 179.769 675.878 179.779 675.874C179.789 675.871 179.799 675.868 179.809 675.864C179.82 675.861 179.83 675.857 179.84 675.854C179.85 675.85 179.86 675.847 179.87 675.843C179.88 675.84 179.89 675.837 179.9 675.833C179.91 675.83 179.921 675.826 179.931 675.823C179.941 675.819 179.951 675.816 179.961 675.812C179.971 675.809 179.981 675.805 179.991 675.802C180.001 675.799 180.011 675.795 180.021 675.792C180.032 675.788 180.042 675.785 180.052 675.781C180.062 675.778 180.072 675.774 180.082 675.771C180.092 675.767 180.102 675.764 180.112 675.761C180.122 675.757 180.133 675.754 180.143 675.75C180.153 675.747 180.163 675.743 180.173 675.74C180.183 675.736 180.193 675.733 180.203 675.729C180.213 675.726 180.223 675.723 180.233 675.719C180.244 675.716 180.254 675.712 180.264 675.709C180.274 675.705 180.284 675.702 180.294 675.698C180.304 675.695 180.314 675.691 180.324 675.688C180.334 675.685 180.344 675.681 180.355 675.678C180.365 675.674 180.375 675.671 180.385 675.667C180.395 675.664 180.405 675.66 180.415 675.657C180.425 675.653 180.435 675.65 180.445 675.647C180.456 675.643 180.466 675.64 180.476 675.636C180.486 675.633 180.496 675.629 180.506 675.626C180.516 675.622 180.526 675.619 180.536 675.616C180.546 675.612 180.556 675.609 180.567 675.605C180.577 675.602 180.587 675.598 180.597 675.595C180.607 675.591 180.617 675.588 180.627 675.584C180.637 675.581 180.647 675.578 180.657 675.574C180.667 675.571 180.678 675.567 180.688 675.564C180.698 675.56 180.708 675.557 180.718 675.553C180.728 675.55 180.738 675.546 180.748 675.543C180.758 675.54 180.768 675.536 180.779 675.533C180.789 675.529 180.799 675.526 180.809 675.522C180.819 675.519 180.829 675.515 180.839 675.512C180.849 675.508 180.859 675.505 180.869 675.502C180.879 675.498 180.89 675.495 180.9 675.491C180.91 675.488 180.92 675.484 180.93 675.481C180.94 675.477 180.95 675.474 180.96 675.47C180.97 675.467 180.98 675.464 180.99 675.46C181.001 675.457 181.011 675.453 181.021 675.45C181.031 675.446 181.041 675.443 181.051 675.439C181.061 675.436 181.071 675.432 181.081 675.429C181.091 675.426 181.102 675.422 181.112 675.419C181.122 675.415 181.132 675.412 181.142 675.408C181.152 675.405 181.162 675.401 181.172 675.398C181.182 675.395 181.192 675.391 181.202 675.388C181.213 675.384 181.223 675.381 181.233 675.377C181.243 675.374 181.253 675.37 181.263 675.367C181.273 675.363 181.283 675.36 181.293 675.357C181.303 675.353 181.313 675.35 181.324 675.346C181.334 675.343 181.344 675.339 181.354 675.336C181.364 675.332 181.374 675.329 181.384 675.325C181.394 675.322 181.404 675.319 181.414 675.315C181.425 675.312 181.435 675.308 181.445 675.305C181.455 675.301 181.465 675.298 181.475 675.294C181.485 675.291 181.495 675.287 181.505 675.284C181.515 675.281 181.525 675.277 181.536 675.274C181.546 675.27 181.556 675.267 181.566 675.263C181.576 675.26 181.586 675.256 181.596 675.253C181.606 675.249 181.616 675.246 181.626 675.243C181.636 675.239 181.647 675.236 181.657 675.232C181.667 675.229 181.677 675.225 181.687 675.222C181.697 675.218 181.707 675.215 181.717 675.211C181.727 675.208 181.737 675.205 181.747 675.201C181.758 675.198 181.768 675.194 181.778 675.191C181.788 675.187 181.798 675.184 181.808 675.18C181.818 675.177 181.828 675.174 181.838 675.17C181.848 675.167 181.859 675.163 181.869 675.16C181.879 675.156 181.889 675.153 181.899 675.149C181.909 675.146 181.919 675.142 181.929 675.139C181.939 675.136 181.949 675.132 181.959 675.129C181.97 675.125 181.98 675.122 181.99 675.118C182 675.115 182.01 675.111 182.02 675.108C182.03 675.104 182.04 675.101 182.05 675.098C182.06 675.094 182.07 675.091 182.081 675.087C182.091 675.084 182.101 675.08 182.111 675.077C182.121 675.073 182.131 675.07 182.141 675.066C182.151 675.063 182.161 675.06 182.171 675.056C182.182 675.053 182.192 675.049 182.202 675.046C182.212 675.042 182.222 675.039 182.232 675.035C182.242 675.032 182.252 675.028 182.262 675.025C182.272 675.022 182.282 675.018 182.293 675.015C182.303 675.011 182.313 675.008 182.323 675.004C182.333 675.001 182.343 674.997 182.353 674.994C182.363 674.99 182.373 674.987 182.383 674.984C182.393 674.98 182.404 674.977 182.414 674.973C182.424 674.97 182.434 674.966 182.444 674.963C182.454 674.959 182.464 674.956 182.474 674.953C182.484 674.949 182.494 674.946 182.505 674.942C182.515 674.939 182.525 674.935 182.535 674.932C182.545 674.928 182.555 674.925 182.565 674.921C182.575 674.918 182.585 674.915 182.595 674.911C182.605 674.908 182.616 674.904 182.626 674.901C182.636 674.897 182.646 674.894 182.656 674.89C182.666 674.887 182.676 674.883 182.686 674.88C182.696 674.877 182.706 674.873 182.716 674.87C182.727 674.866 182.737 674.863 182.747 674.859C182.757 674.856 182.767 674.852 182.777 674.849C182.787 674.845 182.797 674.842 182.807 674.839C182.817 674.835 182.828 674.832 182.838 674.828C182.848 674.825 182.858 674.821 182.868 674.818C182.878 674.814 182.888 674.811 182.898 674.807C182.908 674.804 182.918 674.801 182.928 674.797C182.939 674.794 182.949 674.79 182.959 674.787C182.969 674.783 182.979 674.78 182.989 674.776C182.999 674.773 183.009 674.769 183.019 674.766C183.029 674.763 183.04 674.759 183.05 674.756C183.06 674.752 183.07 674.749 183.08 674.745C183.09 674.742 183.1 674.738 183.11 674.735C183.12 674.732 183.13 674.728 183.14 674.725C183.151 674.721 183.161 674.718 183.171 674.714C183.181 674.711 183.191 674.707 183.201 674.704C183.211 674.7 183.221 674.697 183.231 674.694C183.241 674.69 183.251 674.687 183.262 674.683C183.272 674.68 183.282 674.676 183.292 674.673C183.302 674.669 183.312 674.666 183.322 674.662C183.332 674.659 183.342 674.656 183.352 674.652C183.363 674.649 183.373 674.645 183.383 674.642C183.393 674.638 183.403 674.635 183.413 674.631C183.423 674.628 183.433 674.624 183.443 674.621C183.453 674.618 183.463 674.614 183.474 674.611C183.484 674.607 183.494 674.604 183.504 674.6C183.514 674.597 183.524 674.593 183.534 674.59C183.544 674.586 183.554 674.583 183.564 674.58C183.574 674.576 183.585 674.573 183.595 674.569C183.605 674.566 183.615 674.562 183.625 674.559C183.635 674.555 183.645 674.552 183.655 674.548C183.665 674.545 183.675 674.542 183.686 674.538C183.696 674.535 183.706 674.531 183.716 674.528C183.726 674.524 183.736 674.521 183.746 674.517C183.756 674.514 183.766 674.511 183.776 674.507C183.786 674.504 183.797 674.5 183.807 674.497C183.817 674.493 183.827 674.49 183.837 674.486C183.847 674.483 183.857 674.479 183.867 674.476C183.877 674.473 183.887 674.469 183.897 674.466C183.908 674.462 183.918 674.459 183.928 674.455C183.938 674.452 183.948 674.448 183.958 674.445C183.968 674.441 183.978 674.438 183.988 674.435C183.998 674.431 184.009 674.428 184.019 674.424C184.029 674.421 184.039 674.417 184.049 674.414C184.059 674.41 184.069 674.407 184.079 674.403C184.089 674.4 184.099 674.397 184.109 674.393C184.12 674.39 184.13 674.386 184.14 674.383C184.15 674.379 184.16 674.376 184.17 674.372C184.18 674.369 184.19 674.365 184.2 674.362C184.21 674.359 184.22 674.355 184.231 674.352C184.241 674.348 184.251 674.345 184.261 674.341C184.271 674.338 184.281 674.334 184.291 674.331C184.301 674.327 184.311 674.324 184.321 674.321C184.331 674.317 184.342 674.314 184.352 674.31C184.362 674.307 184.372 674.303 184.382 674.3C184.392 674.296 184.402 674.293 184.412 674.289C184.422 674.286 184.432 674.283 184.443 674.279C184.453 674.276 184.463 674.272 184.473 674.269C184.483 674.265 184.493 674.262 184.503 674.258C184.513 674.255 184.523 674.252 184.533 674.248C184.543 674.245 184.554 674.241 184.564 674.238C184.574 674.234 184.584 674.231 184.594 674.227C184.604 674.224 184.614 674.22 184.624 674.217C184.634 674.214 184.644 674.21 184.654 674.207C184.665 674.203 184.675 674.2 184.685 674.196C184.695 674.193 184.705 674.189 184.715 674.186C184.725 674.182 184.735 674.179 184.745 674.176C184.755 674.172 184.766 674.169 184.776 674.165C184.786 674.162 184.796 674.158 184.806 674.155C184.816 674.151 184.826 674.148 184.836 674.144C184.846 674.141 184.856 674.138 184.866 674.134C184.877 674.131 184.887 674.127 184.897 674.124C184.907 674.12 184.917 674.117 184.927 674.113C184.937 674.11 184.947 674.106 184.957 674.103C184.967 674.1 184.978 674.096 184.988 674.093C184.998 674.089 185.008 674.086 185.018 674.082C185.028 674.079 185.038 674.075 185.048 674.072C185.058 674.068 185.068 674.065 185.078 674.062C185.089 674.058 185.099 674.055 185.109 674.051C185.119 674.048 185.129 674.044 185.139 674.041C185.149 674.037 185.159 674.034 185.169 674.031C185.179 674.027 185.189 674.024 185.2 674.02C185.21 674.017 185.22 674.013 185.23 674.01C185.24 674.006 185.25 674.003 185.26 673.999C185.27 673.996 185.28 673.993 185.29 673.989C185.301 673.986 185.311 673.982 185.321 673.979C185.331 673.975 185.341 673.972 185.351 673.968C185.361 673.965 185.371 673.961 185.381 673.958C185.391 673.955 185.401 673.951 185.412 673.948C185.422 673.944 185.432 673.941 185.442 673.937C185.452 673.934 185.462 673.93 185.472 673.927C185.482 673.923 185.492 673.92 185.502 673.917C185.512 673.913 185.523 673.91 185.533 673.906C185.543 673.903 185.553 673.899 185.563 673.896C185.573 673.892 185.583 673.889 185.593 673.885C185.603 673.882 185.613 673.879 185.624 673.875C185.634 673.872 185.644 673.868 185.654 673.865C185.664 673.861 185.674 673.858 185.684 673.854C185.694 673.851 185.704 673.847 185.714 673.844C185.724 673.841 185.735 673.837 185.745 673.834C185.755 673.83 185.765 673.827 185.775 673.823C185.785 673.82 185.795 673.816 185.805 673.813C185.815 673.81 185.825 673.806 185.835 673.803C185.846 673.799 185.856 673.796 185.866 673.792C185.876 673.789 185.886 673.785 185.896 673.782C185.906 673.778 185.916 673.775 185.926 673.772C185.936 673.768 185.947 673.765 185.957 673.761C185.967 673.758 185.977 673.754 185.987 673.751C185.997 673.747 186.007 673.744 186.017 673.74C186.027 673.737 186.037 673.734 186.047 673.73C186.058 673.727 186.068 673.723 186.078 673.72C186.088 673.716 186.098 673.713 186.108 673.709C186.118 673.706 186.128 673.702 186.138 673.699C186.148 673.696 186.158 673.692 186.169 673.689C186.179 673.685 186.189 673.682 186.199 673.678C186.209 673.675 186.219 673.671 186.229 673.668C186.239 673.664 186.249 673.661 186.259 673.658C186.27 673.654 186.28 673.651 186.29 673.647C186.3 673.644 186.31 673.64 186.32 673.637C186.33 673.633 186.34 673.63 186.35 673.626C186.36 673.623 186.37 673.62 186.381 673.616C186.391 673.613 186.401 673.609 186.411 673.606C186.421 673.602 186.431 673.599 186.441 673.595C186.451 673.592 186.461 673.589 186.471 673.585C186.481 673.582 186.492 673.578 186.502 673.575C186.512 673.571 186.522 673.568 186.532 673.564C186.542 673.561 186.552 673.557 186.562 673.554C186.572 673.551 186.582 673.547 186.593 673.544C186.603 673.54 186.613 673.537 186.623 673.533C186.633 673.53 186.643 673.526 186.653 673.523C186.663 673.519 186.673 673.516 186.683 673.513C186.693 673.509 186.704 673.506 186.714 673.502C186.724 673.499 186.734 673.495 186.744 673.492C186.754 673.488 186.764 673.485 186.774 673.481C186.784 673.478 186.794 673.475 186.804 673.471C186.815 673.468 186.825 673.464 186.835 673.461C186.845 673.457 186.855 673.454 186.865 673.45C186.875 673.447 186.885 673.443 186.895 673.44C186.905 673.437 186.915 673.433 186.926 673.43C186.936 673.426 186.946 673.423 186.956 673.419C186.966 673.416 186.976 673.412 186.986 673.409C186.996 673.405 187.006 673.402 187.016 673.399C187.027 673.395 187.037 673.392 187.047 673.388C187.057 673.385 187.067 673.381 187.077 673.378C187.087 673.374 187.097 673.371 187.107 673.368C187.117 673.364 187.127 673.361 187.138 673.357C187.148 673.354 187.158 673.35 187.168 673.347C187.178 673.343 187.188 673.34 187.198 673.336C187.208 673.333 187.218 673.33 187.228 673.326C187.238 673.323 187.249 673.319 187.259 673.316C187.269 673.312 187.279 673.309 187.289 673.305C187.299 673.302 187.309 673.298 187.319 673.295C187.329 673.292 187.339 673.288 187.35 673.285C187.36 673.281 187.37 673.278 187.38 673.274C187.39 673.271 187.4 673.267 187.41 673.264C187.42 673.26 187.43 673.257 187.44 673.254C187.45 673.25 187.461 673.247 187.471 673.243C187.481 673.24 187.491 673.236 187.501 673.233C187.511 673.229 187.521 673.226 187.531 673.222C187.541 673.219 187.551 673.216 187.561 673.212C187.572 673.209 187.582 673.205 187.592 673.202C187.602 673.198 187.612 673.195 187.622 673.191C187.632 673.188 187.642 673.184 187.652 673.181C187.662 673.178 187.673 673.174 187.683 673.171C187.693 673.167 187.703 673.164 187.713 673.16C187.723 673.157 187.733 673.153 187.743 673.15C187.753 673.147 187.763 673.143 187.773 673.14C187.784 673.136 187.794 673.133 187.804 673.129C187.814 673.126 187.824 673.122 187.834 673.119C187.844 673.115 187.854 673.112 187.864 673.109C187.874 673.105 187.885 673.102 187.895 673.098C187.905 673.095 187.915 673.091 187.925 673.088C187.935 673.084 187.945 673.081 187.955 673.077C187.965 673.074 187.975 673.071 187.985 673.067C187.996 673.064 188.006 673.06 188.016 673.057C188.026 673.053 188.036 673.05 188.046 673.046C188.056 673.043 188.066 673.039 188.076 673.036C188.086 673.033 188.096 673.029 188.107 673.026C188.117 673.022 188.127 673.019 188.137 673.015C188.147 673.012 188.157 673.008 188.167 673.005C188.177 673.001 188.187 672.998 188.197 672.995C188.208 672.991 188.218 672.988 188.228 672.984L187.904 672.038ZM172.4 677.342L171.4 677.342L171.4 732.422L172.4 732.422L173.4 732.422L173.4 677.342L172.4 677.342ZM172.4 732.422L172.076 733.368C177.237 735.134 182.398 736.967 187.558 738.868L187.904 737.93L188.25 736.992C183.074 735.085 177.899 733.246 172.724 731.476L172.4 732.422ZM187.904 737.93L187.58 738.876C192.758 740.648 197.801 742.283 202.708 743.782L203 742.826L203.292 741.87C198.407 740.377 193.386 738.749 188.228 736.984L187.904 737.93ZM203 742.826L202 742.826L202 775.874L203 775.874L204 775.874L204 742.826L203 742.826ZM203 775.874L203.329 774.93C188.102 769.627 174.031 764.597 161.118 759.84L160.772 760.778L160.426 761.716C173.353 766.479 187.434 771.513 202.671 776.818L203 775.874ZM160.772 760.778L161.118 759.84C148.204 755.082 136.038 750.46 124.622 745.975L124.256 746.906L123.89 747.837C135.322 752.328 147.5 756.954 160.426 761.716L160.772 760.778ZM124.256 746.906L124.631 745.979C113.212 741.357 102.406 736.872 92.2124 732.522L91.82 733.442L91.4276 734.362C101.634 738.717 112.452 743.207 123.881 747.833L124.256 746.906ZM91.82 733.442L92.2183 732.525C81.8949 728.042 71.8439 723.424 62.0652 718.671L61.628 719.57L61.1908 720.469C70.9961 725.236 81.0731 729.866 91.4217 734.359L91.82 733.442ZM61.628 719.57L62.628 719.57L62.628 689.174L61.628 689.174L60.628 689.174L60.628 719.57L61.628 719.57ZM61.628 689.174L62.055 690.078C71.8371 685.459 81.8915 680.907 92.2183 676.423L91.82 675.506L91.4217 674.589C81.0765 679.081 71.0029 683.641 61.201 688.27L61.628 689.174ZM91.82 675.506L92.2227 676.421C102.409 671.939 113.209 667.456 124.622 662.973L124.256 662.042L123.89 661.111C112.455 665.604 101.631 670.097 91.4173 674.591L91.82 675.506ZM124.256 662.042L124.631 662.969C136.044 658.349 148.206 653.661 161.118 648.904L160.772 647.966L160.426 647.028C147.498 651.791 135.316 656.487 123.881 661.115L124.256 662.042ZM160.772 647.966L161.118 648.904C174.031 644.147 188.102 639.117 203.329 633.814L203 632.87L202.671 631.926C187.434 637.231 173.353 642.265 160.426 647.028L160.772 647.966ZM203 632.87L202 632.87L202 666.938L203 666.938L204 666.938L204 632.87L203 632.87ZM93.656 705.086L93.3398 706.035C95.3586 706.708 98.1303 707.721 101.661 709.079L102.02 708.146L102.379 707.213C98.8377 705.851 96.0334 704.824 93.9722 704.137L93.656 705.086ZM102.02 708.146L101.661 709.079C105.198 710.44 109.278 712.004 113.903 713.772L114.26 712.838L114.617 711.904C109.994 710.136 105.914 708.572 102.379 707.213L102.02 708.146ZM114.26 712.838L113.903 713.772C118.524 715.539 123.622 717.51 129.196 719.686L129.56 718.754L129.924 717.822C124.346 715.646 119.244 713.673 114.617 711.904L114.26 712.838ZM129.56 718.754L129.216 719.693C134.796 721.734 140.646 723.843 146.769 726.02L147.104 725.078L147.439 724.136C141.322 721.961 135.476 719.854 129.904 717.815L129.56 718.754ZM147.104 725.078L148.104 725.078L148.104 684.89L147.104 684.89L146.104 684.89L146.104 725.078L147.104 725.078ZM147.104 684.89L146.769 683.948C140.646 686.125 134.796 688.234 129.216 690.275L129.56 691.214L129.904 692.153C135.476 690.114 141.322 688.007 147.439 685.832L147.104 684.89ZM129.56 691.214L129.216 690.275C123.63 692.319 118.518 694.295 113.879 696.205L114.26 697.13L114.641 698.055C119.25 696.157 124.338 694.189 129.904 692.153L129.56 691.214ZM114.26 697.13L113.903 696.196C109.278 697.964 105.198 699.528 101.661 700.889L102.02 701.822L102.379 702.755C105.914 701.396 109.994 699.832 114.617 698.064L114.26 697.13ZM102.02 701.822L101.661 700.889C98.1234 702.249 95.3306 703.339 93.2846 704.158L93.656 705.086L94.0274 706.015C96.0614 705.201 98.8446 704.115 102.379 702.755L102.02 701.822ZM120.38 578.871L119.412 579.123L119.415 579.134L120.38 578.871ZM123.44 586.215L122.599 586.755L122.894 587.215L123.44 587.215L123.44 586.215ZM178.724 586.215L178.724 587.215L179.559 587.215L179.708 586.394L178.724 586.215ZM179.54 580.503L180.533 580.619L180.537 580.59L180.538 580.561L179.54 580.503ZM171.176 554.187L171.77 553.382V553.382L171.176 554.187ZM172.604 520.731L172.255 521.668L172.263 521.671L172.271 521.674L172.604 520.731ZM201.776 549.087L202.713 548.738L202.71 548.729L202.707 548.722L201.776 549.087ZM205.04 584.379L204.045 584.279L204.043 584.294L204.042 584.31L205.04 584.379ZM203.816 596.211L204.806 596.352L204.807 596.347L203.816 596.211ZM201.98 607.227L202.954 607.451L202.959 607.434L202.962 607.415L201.98 607.227ZM199.532 616.611L199.532 617.611L200.276 617.611L200.49 616.898L199.532 616.611ZM49.592 616.611L48.6047 616.77L48.7402 617.611L49.592 617.611L49.592 616.611ZM44.696 586.215L44.696 585.215L43.522 585.215L43.7087 586.374L44.696 586.215ZM98.144 586.215L98.144 587.215L99.6765 587.215L99.0593 585.812L98.144 586.215ZM94.676 575.607L95.6522 575.39V575.39L94.676 575.607ZM97.532 543.579L98.4387 544L98.4428 543.992L98.4467 543.983L97.532 543.579ZM108.752 528.891L109.379 529.669V529.669L108.752 528.891ZM126.5 519.915L126.782 520.874L126.787 520.872L126.5 519.915ZM148.532 547.863L148.532 546.863C138.647 546.863 131.051 548.677 125.907 552.463C120.706 556.292 118.156 562.028 118.156 569.487L119.156 569.487L120.156 569.487C120.156 562.53 122.502 557.453 127.093 554.074C131.741 550.653 138.833 548.863 148.532 548.863L148.532 547.863ZM119.156 569.487L118.156 569.487C118.156 572.703 118.576 575.915 119.412 579.123L120.38 578.871L121.348 578.618C120.552 575.57 120.156 572.527 120.156 569.487L119.156 569.487ZM120.38 578.871L119.415 579.134C120.249 582.19 121.304 584.741 122.599 586.755L123.44 586.215L124.281 585.674C123.128 583.881 122.143 581.535 121.345 578.607L120.38 578.871ZM123.44 586.215L123.44 587.215L178.724 587.215L178.724 586.215L178.724 585.215L123.44 585.215L123.44 586.215ZM178.724 586.215L179.708 586.394C179.985 584.869 180.26 582.943 180.533 580.619L179.54 580.503L178.547 580.386C178.276 582.687 178.007 584.568 177.74 586.036L178.724 586.215ZM179.54 580.503L180.538 580.561C180.676 578.227 180.744 575.691 180.744 572.955L179.744 572.955L178.744 572.955C178.744 575.658 178.676 578.154 178.542 580.444L179.54 580.503ZM179.744 572.955L180.744 572.955C180.744 564.402 177.783 557.82 171.77 553.382L171.176 554.187L170.582 554.991C175.993 558.985 178.744 564.915 178.744 572.955L179.744 572.955ZM171.176 554.187L171.77 553.382C165.838 549.004 158.061 546.863 148.532 546.863L148.532 547.863L148.532 548.863C157.771 548.863 165.09 550.937 170.582 554.991L171.176 554.187ZM149.348 516.855L149.348 517.855C157.815 517.855 165.447 519.131 172.255 521.668L172.604 520.731L172.953 519.794C165.889 517.162 158.017 515.855 149.348 515.855L149.348 516.855ZM172.604 520.731L172.271 521.674C179.082 524.077 184.87 527.608 189.655 532.26L190.352 531.543L191.049 530.826C186.042 525.957 179.998 522.28 172.937 519.788L172.604 520.731ZM190.352 531.543L189.655 532.26C194.44 536.912 198.172 542.636 200.845 549.452L201.776 549.087L202.707 548.722C199.94 541.665 196.056 535.694 191.049 530.826L190.352 531.543ZM201.776 549.087L200.839 549.436C203.374 556.241 204.652 564.007 204.652 572.751L205.652 572.751L206.652 572.751C206.652 563.814 205.346 555.805 202.713 548.738L201.776 549.087ZM205.652 572.751L204.652 572.751C204.652 576.386 204.45 580.228 204.045 584.279L205.04 584.379L206.035 584.478C206.446 580.369 206.652 576.459 206.652 572.751L205.652 572.751ZM205.04 584.379L204.042 584.31C203.772 588.231 203.366 592.152 202.825 596.074L203.816 596.211L204.807 596.347C205.354 592.381 205.764 588.414 206.038 584.447L205.04 584.379ZM203.816 596.211L202.826 596.069C202.284 599.862 201.675 603.519 200.998 607.038L201.98 607.227L202.962 607.415C203.645 603.863 204.26 600.175 204.806 596.352L203.816 596.211ZM201.98 607.227L201.006 607.002C200.193 610.522 199.383 613.629 198.574 616.323L199.532 616.611L200.49 616.898C201.313 614.153 202.135 611.003 202.954 607.451L201.98 607.227ZM199.532 616.611L199.532 615.611L49.592 615.611L49.592 616.611L49.592 617.611L199.532 617.611L199.532 616.611ZM49.592 616.611L50.5793 616.452L45.6833 586.056L44.696 586.215L43.7087 586.374L48.6047 616.77L49.592 616.611ZM44.696 586.215L44.696 587.215L98.144 587.215L98.144 586.215L98.144 585.215L44.696 585.215L44.696 586.215ZM98.144 586.215L99.0593 585.812C97.59 582.472 96.4542 578.999 95.6522 575.39L94.676 575.607L93.6998 575.824C94.5298 579.559 95.706 583.157 97.2287 586.617L98.144 586.215ZM94.676 575.607L95.6522 575.39C94.8538 571.797 94.452 567.926 94.452 563.775L93.452 563.775L92.452 563.775C92.452 568.055 92.8662 572.072 93.6998 575.824L94.676 575.607ZM93.452 563.775L94.452 563.775C94.452 556.278 95.7903 549.694 98.4387 544L97.532 543.579L96.6253 543.157C93.8337 549.159 92.452 556.039 92.452 563.775L93.452 563.775ZM97.532 543.579L98.4467 543.983C100.967 538.278 104.61 533.511 109.379 529.669L108.752 528.891L108.125 528.112C103.102 532.158 99.2647 537.183 96.6173 543.174L97.532 543.579ZM108.752 528.891L109.379 529.669C114.159 525.819 119.953 522.882 126.782 520.874L126.5 519.915L126.218 518.955C119.175 521.027 113.137 524.074 108.125 528.112L108.752 528.891ZM126.5 519.915L126.787 520.872C133.479 518.865 140.996 517.855 149.348 517.855L149.348 516.855L149.348 515.855C140.836 515.855 133.121 516.884 126.213 518.957L126.5 519.915ZM172.4 396.797L172.733 395.854L172.727 395.852L172.4 396.797ZM190.352 407.405L191.039 406.678L191.029 406.669L190.352 407.405ZM201.776 424.133L200.853 424.518L200.856 424.525L201.776 424.133ZM201.776 467.381L202.696 467.773L202.699 467.766L201.776 467.381ZM190.352 483.905L191.029 484.642L191.039 484.632L190.352 483.905ZM172.4 494.717L172.743 495.657L172.749 495.655L172.4 494.717ZM126.092 494.717L125.727 495.648L125.735 495.652L125.743 495.655L126.092 494.717ZM108.344 483.701L107.647 484.418L107.652 484.423L107.657 484.428L108.344 483.701ZM96.92 466.973L95.9969 467.358L95.9998 467.365L96.92 466.973ZM96.92 424.541L97.8402 424.933L97.8431 424.926L96.92 424.541ZM108.344 407.813L109.031 408.54L109.031 408.54L108.344 407.813ZM126.092 397.001L126.441 397.939V397.939L126.092 397.001ZM127.112 429.845L127.671 430.674L127.683 430.666L127.695 430.658L127.112 429.845ZM127.112 461.873L127.695 461.061L127.685 461.054L127.112 461.873ZM171.584 461.873L172.148 462.699L172.157 462.693L171.584 461.873ZM171.584 429.845L171.02 430.671L171.025 430.674L171.584 429.845ZM149.144 393.125L149.144 394.125C157.479 394.125 165.119 395.335 172.073 397.742L172.4 396.797L172.727 395.852C165.537 393.364 157.673 392.125 149.144 392.125L149.144 393.125ZM172.4 396.797L172.067 397.74C178.886 400.147 184.75 403.616 189.675 408.142L190.352 407.405L191.029 406.669C185.89 401.947 179.786 398.344 172.733 395.854L172.4 396.797ZM190.352 407.405L189.665 408.132C194.454 412.655 198.184 418.113 200.853 424.518L201.776 424.133L202.699 423.749C199.928 417.098 196.042 411.404 191.039 406.678L190.352 407.405ZM201.776 424.133L200.856 424.525C203.516 430.775 204.856 437.847 204.856 445.757L205.856 445.757L206.856 445.757C206.856 437.62 205.476 430.275 202.696 423.742L201.776 424.133ZM205.856 445.757L204.856 445.757C204.856 453.529 203.517 460.604 200.853 466.997L201.776 467.381L202.699 467.766C205.475 461.103 206.856 453.762 206.856 445.757L205.856 445.757ZM201.776 467.381L200.856 466.99C198.188 473.259 194.458 478.652 189.665 483.178L190.352 483.905L191.039 484.632C196.038 479.911 199.924 474.288 202.696 467.773L201.776 467.381ZM190.352 483.905L189.675 483.169C184.746 487.699 178.876 491.238 172.051 493.78L172.4 494.717L172.749 495.655C179.796 493.029 185.894 489.36 191.029 484.642L190.352 483.905ZM172.4 494.717L172.057 493.778C165.107 496.317 157.473 497.593 149.144 497.593L149.144 498.593L149.144 499.593C157.679 499.593 165.549 498.285 172.743 495.657L172.4 494.717ZM149.144 498.593L149.144 497.593C140.815 497.593 133.251 496.317 126.441 493.78L126.092 494.717L125.743 495.655C132.805 498.285 140.609 499.593 149.144 499.593L149.144 498.593ZM126.092 494.717L126.457 493.786C119.628 491.108 113.824 487.502 109.031 482.974L108.344 483.701L107.657 484.428C112.656 489.149 118.684 492.887 125.727 495.648L126.092 494.717ZM108.344 483.701L109.041 482.984C104.242 478.319 100.509 472.854 97.8402 466.582L96.92 466.973L95.9998 467.365C98.7709 473.877 102.654 479.564 107.647 484.418L108.344 483.701ZM96.92 466.973L97.8431 466.589C95.1777 460.192 93.84 453.252 93.84 445.757L92.84 445.757L91.84 445.757C91.84 453.495 93.2223 460.699 95.9969 467.358L96.92 466.973ZM92.84 445.757L93.84 445.757C93.84 438.124 95.1786 431.188 97.8402 424.933L96.92 424.541L95.9998 424.15C93.2214 430.679 91.84 437.886 91.84 445.757L92.84 445.757ZM96.92 424.541L97.8431 424.926C100.512 418.521 104.242 413.063 109.031 408.54L108.344 407.813L107.657 407.086C102.654 411.812 98.7681 417.506 95.9969 424.157L96.92 424.541ZM108.344 407.813L109.031 408.54C113.82 404.017 119.618 400.48 126.441 397.939L126.092 397.001L125.743 396.064C118.694 398.69 112.66 402.362 107.657 407.086L108.344 407.813ZM126.092 397.001L126.441 397.939C133.251 395.401 140.815 394.125 149.144 394.125L149.144 393.125L149.144 392.125C140.609 392.125 132.805 393.433 125.743 396.064L126.092 397.001ZM149.144 424.133L149.144 423.133C139.639 423.133 132.062 425.06 126.529 429.033L127.112 429.845L127.695 430.658C132.77 427.015 139.881 425.133 149.144 425.133L149.144 424.133ZM127.112 429.845L126.553 429.017C120.819 432.887 117.952 438.512 117.952 445.757L118.952 445.757L119.952 445.757C119.952 439.131 122.525 434.148 127.671 430.674L127.112 429.845ZM118.952 445.757L117.952 445.757C117.952 453.003 120.817 458.688 126.539 462.693L127.112 461.873L127.685 461.054C122.527 457.443 119.952 452.384 119.952 445.757L118.952 445.757ZM127.112 461.873L126.529 462.686C132.062 466.659 139.639 468.585 149.144 468.585L149.144 467.585L149.144 466.585C139.881 466.585 132.77 464.704 127.695 461.061L127.112 461.873ZM149.144 467.585L149.144 468.585C158.653 468.585 166.353 466.657 172.148 462.699L171.584 461.873L171.02 461.048C165.663 464.706 158.403 466.585 149.144 466.585L149.144 467.585ZM171.584 461.873L172.157 462.693C177.879 458.688 180.744 453.003 180.744 445.757L179.744 445.757L178.744 445.757C178.744 452.384 176.169 457.443 171.011 461.054L171.584 461.873ZM179.744 445.757L180.744 445.757C180.744 438.512 177.877 432.887 172.143 429.017L171.584 429.845L171.025 430.674C176.171 434.148 178.744 439.131 178.744 445.757L179.744 445.757ZM171.584 429.845L172.148 429.02C166.353 425.062 158.653 423.133 149.144 423.133L149.144 424.133L149.144 425.133C158.403 425.133 165.663 427.013 171.02 430.671L171.584 429.845ZM199.328 277.983L200.289 277.705L200.08 276.983L199.328 276.983L199.328 277.983ZM203.408 297.975L202.419 298.124L202.42 298.132L202.422 298.14L203.408 297.975ZM201.776 346.527L202.702 346.906L202.704 346.899L201.776 346.527ZM191.576 360.807L192.195 361.593L192.201 361.588L192.207 361.583L191.576 360.807ZM95.696 370.599L94.696 370.599L94.696 371.599L95.696 371.599L95.696 370.599ZM95.696 340.203L95.696 339.203L94.696 339.203L94.696 340.203L95.696 340.203ZM173.012 336.327L173.523 337.187V337.187L173.012 336.327ZM179.336 314.907L180.334 314.852L180.333 314.824L180.33 314.797L179.336 314.907ZM178.52 308.379L179.51 308.238L179.387 307.379L178.52 307.379L178.52 308.379ZM95.696 308.379L94.696 308.379L94.696 309.379L95.696 309.379L95.696 308.379ZM95.696 277.983L95.696 276.983L94.696 276.983L94.696 277.983L95.696 277.983ZM199.328 277.983L198.367 278.261C199.846 283.371 201.199 289.987 202.419 298.124L203.408 297.975L204.397 297.827C203.169 289.644 201.802 282.932 200.289 277.705L199.328 277.983ZM203.408 297.975L202.422 298.14C203.772 306.241 204.448 314.754 204.448 323.679L205.448 323.679L206.448 323.679C206.448 314.653 205.764 306.03 204.394 297.811L203.408 297.975ZM205.448 323.679L204.448 323.679C204.448 332.709 203.234 340.19 200.848 346.156L201.776 346.527L202.704 346.899C205.214 340.625 206.448 332.873 206.448 323.679L205.448 323.679ZM201.776 346.527L200.85 346.149C198.456 352.002 195.149 356.616 190.945 360.031L191.576 360.807L192.207 361.583C196.707 357.927 200.2 353.021 202.702 346.906L201.776 346.527ZM191.576 360.807L190.957 360.022C186.593 363.461 181.422 365.918 175.427 367.384L175.664 368.355L175.901 369.327C182.146 367.8 187.583 365.226 192.195 361.593L191.576 360.807ZM175.664 368.355L175.427 367.384C169.396 368.858 162.745 369.599 155.468 369.599L155.468 370.599L155.468 371.599C162.879 371.599 169.692 370.845 175.901 369.327L175.664 368.355ZM155.468 370.599L155.468 369.599L95.696 369.599L95.696 370.599L95.696 371.599L155.468 371.599L155.468 370.599ZM95.696 370.599L96.696 370.599L96.696 340.203L95.696 340.203L94.696 340.203L94.696 370.599L95.696 370.599ZM95.696 340.203L95.696 341.203L151.796 341.203L151.796 340.203L151.796 339.203L95.696 339.203L95.696 340.203ZM151.796 340.203L151.796 341.203C161.628 341.203 168.929 339.915 173.523 337.187L173.012 336.327L172.501 335.468C168.391 337.908 161.548 339.203 151.796 339.203L151.796 340.203ZM173.012 336.327L173.523 337.187C178.292 334.356 180.54 329.112 180.54 321.843L179.54 321.843L178.54 321.843C178.54 328.718 176.436 333.131 172.501 335.468L173.012 336.327ZM179.54 321.843L180.54 321.843C180.54 319.647 180.471 317.316 180.334 314.852L179.336 314.907L178.338 314.963C178.473 317.395 178.54 319.688 178.54 321.843L179.54 321.843ZM179.336 314.907L180.33 314.797C180.057 312.341 179.784 310.155 179.51 308.238L178.52 308.379L177.53 308.521C177.8 310.412 178.071 312.577 178.342 315.018L179.336 314.907ZM178.52 308.379L178.52 307.379L95.696 307.379L95.696 308.379L95.696 309.379L178.52 309.379L178.52 308.379ZM95.696 308.379L96.696 308.379L96.696 277.983L95.696 277.983L94.696 277.983L94.696 308.379L95.696 308.379ZM95.696 277.983L95.696 278.983L199.328 278.983L199.328 277.983L199.328 276.983L95.696 276.983L95.696 277.983ZM68.972 250.47L67.9847 250.63L68.1202 251.47L68.972 251.47L68.972 250.47ZM64.076 220.074L64.076 219.074L62.902 219.074L63.0887 220.234L64.076 220.074ZM95.696 220.074L95.696 221.074L96.696 221.074L96.696 220.074L95.696 220.074ZM95.696 183.558L95.696 182.558L94.696 182.558L94.696 183.558L95.696 183.558ZM120.992 183.558L121.992 183.558L121.992 182.558L120.992 182.558L120.992 183.558ZM120.992 220.074L119.992 220.074L119.992 221.074L120.992 221.074L120.992 220.074ZM174.032 216.81L174.528 217.679L174.54 217.672L174.551 217.665L174.032 216.81ZM178.928 193.146L179.915 192.988L179.913 192.973L179.91 192.958L178.928 193.146ZM176.276 183.558L176.098 182.574L174.913 182.789L175.342 183.914L176.276 183.558ZM199.94 179.274L200.866 178.897L200.56 178.146L199.762 178.29L199.94 179.274ZM203.816 191.514L202.844 191.75V191.75L203.816 191.514ZM202.184 228.642L203.104 229.034L203.109 229.024L203.112 229.014L202.184 228.642ZM192.8 241.698L193.425 242.479L193.431 242.474L193.438 242.469L192.8 241.698ZM178.112 248.634L178.322 249.612L178.333 249.61L178.344 249.607L178.112 248.634ZM68.972 250.47L69.9593 250.311L65.0633 219.915L64.076 220.074L63.0887 220.234L67.9847 250.63L68.972 250.47ZM64.076 220.074L64.076 221.074L95.696 221.074L95.696 220.074L95.696 219.074L64.076 219.074L64.076 220.074ZM95.696 220.074L96.696 220.074L96.696 183.558L95.696 183.558L94.696 183.558L94.696 220.074L95.696 220.074ZM95.696 183.558L95.696 184.558L120.992 184.558L120.992 183.558L120.992 182.558L95.696 182.558L95.696 183.558ZM120.992 183.558L119.992 183.558L119.992 220.074L120.992 220.074L121.992 220.074L121.992 183.558L120.992 183.558ZM120.992 220.074L120.992 221.074L158.732 221.074L158.732 220.074L158.732 219.074L120.992 219.074L120.992 220.074ZM158.732 220.074L158.732 221.074C165.224 221.074 170.515 219.972 174.528 217.679L174.032 216.81L173.536 215.942C169.933 218.001 165.024 219.074 158.732 219.074L158.732 220.074ZM174.032 216.81L174.551 217.665C178.794 215.089 180.744 210.095 180.744 203.142L179.744 203.142L178.744 203.142C178.744 209.79 176.886 213.908 173.513 215.956L174.032 216.81ZM179.744 203.142L180.744 203.142C180.744 199.823 180.467 196.438 179.915 192.988L178.928 193.146L177.941 193.304C178.477 196.655 178.744 199.934 178.744 203.142L179.744 203.142ZM178.928 193.146L179.91 192.958C179.221 189.374 178.322 186.121 177.21 183.202L176.276 183.558L175.342 183.914C176.406 186.708 177.275 189.847 177.946 193.335L178.928 193.146ZM176.276 183.558L176.454 184.542L200.118 180.258L199.94 179.274L199.762 178.29L176.098 182.574L176.276 183.558ZM199.94 179.274L199.014 179.652C200.488 183.271 201.766 187.303 202.844 191.75L203.816 191.514L204.788 191.279C203.69 186.75 202.384 182.622 200.866 178.897L199.94 179.274ZM203.816 191.514L202.844 191.75C203.908 196.136 204.448 201.56 204.448 208.038L205.448 208.038L206.448 208.038C206.448 201.461 205.9 195.868 204.788 191.279L203.816 191.514ZM205.448 208.038L204.448 208.038C204.448 216.256 203.369 222.987 201.256 228.271L202.184 228.642L203.112 229.014C205.351 223.418 206.448 216.413 206.448 208.038L205.448 208.038ZM202.184 228.642L201.264 228.251C199.005 233.567 195.965 237.781 192.162 240.928L192.8 241.698L193.438 242.469C197.523 239.088 200.739 234.598 203.104 229.034L202.184 228.642ZM192.8 241.698L192.175 240.918C188.224 244.079 183.467 246.332 177.88 247.662L178.112 248.634L178.344 249.607C184.181 248.217 189.216 245.846 193.425 242.479L192.8 241.698ZM178.112 248.634L177.902 247.657C172.271 248.863 166.018 249.47 159.14 249.47L159.14 250.47L159.14 251.47C166.134 251.47 172.529 250.853 178.322 249.612L178.112 248.634ZM159.14 250.47L159.14 249.47L68.972 249.47L68.972 250.47L68.972 251.47L159.14 251.47L159.14 250.47Z" fill="white" mask="url(#path-2-outside-1_1462_15)"/>
</g>
</svg>
