<svg width="1901" height="1073" viewBox="0 0 1901 1073" fill="none" xmlns="http://www.w3.org/2000/svg">
<path d="M-19 0H1901V1073H-19V0Z" fill="#28282A"/>
<ellipse cx="1721.25" cy="471.128" rx="3.58121" ry="6.1646" transform="rotate(-31.0963 1721.25 471.128)" fill="#45B26B"/>
<ellipse cx="699.458" cy="517.646" rx="4.84605" ry="8.34187" transform="rotate(-31.0963 699.458 517.646)" fill="#9757D7"/>
<ellipse cx="1487.43" cy="154.732" rx="9.41072" ry="16.1994" transform="rotate(-31.0963 1487.43 154.732)" fill="#F23849"/>
<ellipse cx="1660.25" cy="683.129" rx="3.58121" ry="6.1646" transform="rotate(-31.0963 1660.25 683.129)" fill="#3772FF"/>
<path opacity="0.5" fill-rule="evenodd" clip-rule="evenodd" d="M190 867C187.791 867 186 865.209 186 863C186 860.791 187.791 859 190 859C192.209 859 194 860.791 194 863C194 865.209 192.209 867 190 867ZM190 891C187.791 891 186 889.209 186 887C186 884.791 187.791 883 190 883C192.209 883 194 884.791 194 887C194 889.209 192.209 891 190 891ZM186 911C186 913.209 187.791 915 190 915C192.209 915 194 913.209 194 911C194 908.791 192.209 907 190 907C187.791 907 186 908.791 186 911ZM190 939C187.791 939 186 937.209 186 935C186 932.791 187.791 931 190 931C192.209 931 194 932.791 194 935C194 937.209 192.209 939 190 939ZM186 959C186 961.209 187.791 963 190 963C192.209 963 194 961.209 194 959C194 956.791 192.209 955 190 955C187.791 955 186 956.791 186 959ZM190 987C187.791 987 186 985.209 186 983C186 980.791 187.791 979 190 979C192.209 979 194 980.791 194 983C194 985.209 192.209 987 190 987ZM186 1007C186 1009.21 187.791 1011 190 1011C192.209 1011 194 1009.21 194 1007C194 1004.79 192.209 1003 190 1003C187.791 1003 186 1004.79 186 1007ZM190 1035C187.791 1035 186 1033.21 186 1031C186 1028.79 187.791 1027 190 1027C192.209 1027 194 1028.79 194 1031C194 1033.21 192.209 1035 190 1035ZM162 863C162 865.209 163.791 867 166 867C168.209 867 170 865.209 170 863C170 860.791 168.209 859 166 859C163.791 859 162 860.791 162 863ZM166 891C163.791 891 162 889.209 162 887C162 884.791 163.791 883 166 883C168.209 883 170 884.791 170 887C170 889.209 168.209 891 166 891ZM162 911C162 913.209 163.791 915 166 915C168.209 915 170 913.209 170 911C170 908.791 168.209 907 166 907C163.791 907 162 908.791 162 911ZM166 939C163.791 939 162 937.209 162 935C162 932.791 163.791 931 166 931C168.209 931 170 932.791 170 935C170 937.209 168.209 939 166 939ZM162 959C162 961.209 163.791 963 166 963C168.209 963 170 961.209 170 959C170 956.791 168.209 955 166 955C163.791 955 162 956.791 162 959ZM166 987C163.791 987 162 985.209 162 983C162 980.791 163.791 979 166 979C168.209 979 170 980.791 170 983C170 985.209 168.209 987 166 987ZM162 1007C162 1009.21 163.791 1011 166 1011C168.209 1011 170 1009.21 170 1007C170 1004.79 168.209 1003 166 1003C163.791 1003 162 1004.79 162 1007ZM166 1035C163.791 1035 162 1033.21 162 1031C162 1028.79 163.791 1027 166 1027C168.209 1027 170 1028.79 170 1031C170 1033.21 168.209 1035 166 1035ZM138 863C138 865.209 139.791 867 142 867C144.209 867 146 865.209 146 863C146 860.791 144.209 859 142 859C139.791 859 138 860.791 138 863ZM142 891C139.791 891 138 889.209 138 887C138 884.791 139.791 883 142 883C144.209 883 146 884.791 146 887C146 889.209 144.209 891 142 891ZM138 911C138 913.209 139.791 915 142 915C144.209 915 146 913.209 146 911C146 908.791 144.209 907 142 907C139.791 907 138 908.791 138 911ZM142 939C139.791 939 138 937.209 138 935C138 932.791 139.791 931 142 931C144.209 931 146 932.791 146 935C146 937.209 144.209 939 142 939ZM138 959C138 961.209 139.791 963 142 963C144.209 963 146 961.209 146 959C146 956.791 144.209 955 142 955C139.791 955 138 956.791 138 959ZM142 987C139.791 987 138 985.209 138 983C138 980.791 139.791 979 142 979C144.209 979 146 980.791 146 983C146 985.209 144.209 987 142 987ZM138 1007C138 1009.21 139.791 1011 142 1011C144.209 1011 146 1009.21 146 1007C146 1004.79 144.209 1003 142 1003C139.791 1003 138 1004.79 138 1007ZM142 1035C139.791 1035 138 1033.21 138 1031C138 1028.79 139.791 1027 142 1027C144.209 1027 146 1028.79 146 1031C146 1033.21 144.209 1035 142 1035ZM114 863C114 865.209 115.791 867 118 867C120.209 867 122 865.209 122 863C122 860.791 120.209 859 118 859C115.791 859 114 860.791 114 863ZM118 891C115.791 891 114 889.209 114 887C114 884.791 115.791 883 118 883C120.209 883 122 884.791 122 887C122 889.209 120.209 891 118 891ZM114 911C114 913.209 115.791 915 118 915C120.209 915 122 913.209 122 911C122 908.791 120.209 907 118 907C115.791 907 114 908.791 114 911ZM118 939C115.791 939 114 937.209 114 935C114 932.791 115.791 931 118 931C120.209 931 122 932.791 122 935C122 937.209 120.209 939 118 939ZM114 959C114 961.209 115.791 963 118 963C120.209 963 122 961.209 122 959C122 956.791 120.209 955 118 955C115.791 955 114 956.791 114 959ZM118 987C115.791 987 114 985.209 114 983C114 980.791 115.791 979 118 979C120.209 979 122 980.791 122 983C122 985.209 120.209 987 118 987ZM114 1007C114 1009.21 115.791 1011 118 1011C120.209 1011 122 1009.21 122 1007C122 1004.79 120.209 1003 118 1003C115.791 1003 114 1004.79 114 1007ZM118 1035C115.791 1035 114 1033.21 114 1031C114 1028.79 115.791 1027 118 1027C120.209 1027 122 1028.79 122 1031C122 1033.21 120.209 1035 118 1035ZM90 863C90 865.209 91.7909 867 94 867C96.2091 867 98 865.209 98 863C98 860.791 96.2091 859 94 859C91.7909 859 90 860.791 90 863ZM94 891C91.7909 891 90 889.209 90 887C90 884.791 91.7909 883 94 883C96.2091 883 98 884.791 98 887C98 889.209 96.2091 891 94 891ZM90 911C90 913.209 91.7909 915 94 915C96.2091 915 98 913.209 98 911C98 908.791 96.2091 907 94 907C91.7909 907 90 908.791 90 911ZM94 939C91.7909 939 90 937.209 90 935C90 932.791 91.7909 931 94 931C96.2091 931 98 932.791 98 935C98 937.209 96.2091 939 94 939ZM90 959C90 961.209 91.7909 963 94 963C96.2091 963 98 961.209 98 959C98 956.791 96.2091 955 94 955C91.7909 955 90 956.791 90 959ZM94 987C91.7909 987 90 985.209 90 983C90 980.791 91.7909 979 94 979C96.2091 979 98 980.791 98 983C98 985.209 96.2091 987 94 987ZM90 1007C90 1009.21 91.7909 1011 94 1011C96.2091 1011 98 1009.21 98 1007C98 1004.79 96.2091 1003 94 1003C91.7909 1003 90 1004.79 90 1007ZM94 1035C91.7909 1035 90 1033.21 90 1031C90 1028.79 91.7909 1027 94 1027C96.2091 1027 98 1028.79 98 1031C98 1033.21 96.2091 1035 94 1035ZM66 863C66 865.209 67.7909 867 70 867C72.2091 867 74 865.209 74 863C74 860.791 72.2091 859 70 859C67.7909 859 66 860.791 66 863ZM70 891C67.7909 891 66 889.209 66 887C66 884.791 67.7909 883 70 883C72.2091 883 74 884.791 74 887C74 889.209 72.2091 891 70 891ZM66 911C66 913.209 67.7909 915 70 915C72.2091 915 74 913.209 74 911C74 908.791 72.2091 907 70 907C67.7909 907 66 908.791 66 911ZM70 939C67.7909 939 66 937.209 66 935C66 932.791 67.7909 931 70 931C72.2091 931 74 932.791 74 935C74 937.209 72.2091 939 70 939ZM66 959C66 961.209 67.7909 963 70 963C72.2091 963 74 961.209 74 959C74 956.791 72.2091 955 70 955C67.7909 955 66 956.791 66 959ZM70 987C67.7909 987 66 985.209 66 983C66 980.791 67.7909 979 70 979C72.2091 979 74 980.791 74 983C74 985.209 72.2091 987 70 987ZM66 1007C66 1009.21 67.7909 1011 70 1011C72.2091 1011 74 1009.21 74 1007C74 1004.79 72.2091 1003 70 1003C67.7909 1003 66 1004.79 66 1007ZM70 1035C67.7909 1035 66 1033.21 66 1031C66 1028.79 67.7909 1027 70 1027C72.2091 1027 74 1028.79 74 1031C74 1033.21 72.2091 1035 70 1035ZM42 863C42 865.209 43.7909 867 46 867C48.2091 867 50 865.209 50 863C50 860.791 48.2091 859 46 859C43.7909 859 42 860.791 42 863ZM46 891C43.7909 891 42 889.209 42 887C42 884.791 43.7909 883 46 883C48.2091 883 50 884.791 50 887C50 889.209 48.2091 891 46 891ZM42 911C42 913.209 43.7909 915 46 915C48.2091 915 50 913.209 50 911C50 908.791 48.2091 907 46 907C43.7909 907 42 908.791 42 911ZM46 939C43.7909 939 42 937.209 42 935C42 932.791 43.7909 931 46 931C48.2091 931 50 932.791 50 935C50 937.209 48.2091 939 46 939ZM42 959C42 961.209 43.7909 963 46 963C48.2091 963 50 961.209 50 959C50 956.791 48.2091 955 46 955C43.7909 955 42 956.791 42 959ZM46 987C43.7909 987 42 985.209 42 983C42 980.791 43.7909 979 46 979C48.2091 979 50 980.791 50 983C50 985.209 48.2091 987 46 987ZM42 1007C42 1009.21 43.7909 1011 46 1011C48.2091 1011 50 1009.21 50 1007C50 1004.79 48.2091 1003 46 1003C43.7909 1003 42 1004.79 42 1007ZM46 1035C43.7909 1035 42 1033.21 42 1031C42 1028.79 43.7909 1027 46 1027C48.2091 1027 50 1028.79 50 1031C50 1033.21 48.2091 1035 46 1035ZM18 863C18 865.209 19.7909 867 22 867C24.2091 867 26 865.209 26 863C26 860.791 24.2091 859 22 859C19.7909 859 18 860.791 18 863ZM22 891C19.7909 891 18 889.209 18 887C18 884.791 19.7909 883 22 883C24.2091 883 26 884.791 26 887C26 889.209 24.2091 891 22 891ZM18 911C18 913.209 19.7909 915 22 915C24.2091 915 26 913.209 26 911C26 908.791 24.2091 907 22 907C19.7909 907 18 908.791 18 911ZM22 939C19.7909 939 18 937.209 18 935C18 932.791 19.7909 931 22 931C24.2091 931 26 932.791 26 935C26 937.209 24.2091 939 22 939ZM18 959C18 961.209 19.7909 963 22 963C24.2091 963 26 961.209 26 959C26 956.791 24.2091 955 22 955C19.7909 955 18 956.791 18 959ZM22 987C19.7909 987 18 985.209 18 983C18 980.791 19.7909 979 22 979C24.2091 979 26 980.791 26 983C26 985.209 24.2091 987 22 987ZM18 1007C18 1009.21 19.7909 1011 22 1011C24.2091 1011 26 1009.21 26 1007C26 1004.79 24.2091 1003 22 1003C19.7909 1003 18 1004.79 18 1007ZM22 1035C19.7909 1035 18 1033.21 18 1031C18 1028.79 19.7909 1027 22 1027C24.2091 1027 26 1028.79 26 1031C26 1033.21 24.2091 1035 22 1035Z" fill="url(#paint0_linear_1492_19)"/>
<defs>
<linearGradient id="paint0_linear_1492_19" x1="18" y1="859" x2="194" y2="1035" gradientUnits="userSpaceOnUse">
<stop stop-color="#E5E5E5"/>
<stop offset="1" stop-color="#E5E5E5" stop-opacity="0"/>
</linearGradient>
</defs>
</svg>
