<svg width="20" height="15" viewBox="0 0 20 15" fill="none" xmlns="http://www.w3.org/2000/svg">
<path fill-rule="evenodd" clip-rule="evenodd" d="M9.58585 0C13.5495 0.00279416 17.1087 2.70289 19.1077 7.22384C19.1863 7.39988 19.1863 7.59919 19.1077 7.77523C17.1096 12.2971 13.5495 14.9972 9.58585 15H9.5801C5.61648 14.9972 2.05728 12.2971 0.058218 7.77523C-0.019406 7.59919 -0.019406 7.39988 0.058218 7.22384C2.05728 2.70289 5.61744 0.00279416 9.5801 0H9.58585ZM9.58297 1.39708C6.29018 1.39801 3.2868 3.67339 1.50433 7.49953C3.2868 11.3266 6.28922 13.602 9.58297 13.6029C12.8767 13.602 15.8791 11.3266 17.6616 7.49953C15.8791 3.67339 12.8767 1.39801 9.58297 1.39708ZM9.58269 3.85669C11.6498 3.85669 13.3316 5.49128 13.3316 7.50028C13.3316 9.50835 11.6498 11.142 9.58269 11.142C7.51559 11.142 5.83469 9.50835 5.83469 7.50028C5.83469 5.49128 7.51559 3.85669 9.58269 3.85669ZM9.58269 5.25377C8.30812 5.25377 7.27217 6.26153 7.27217 7.50028C7.27217 8.73809 8.30812 9.74492 9.58269 9.74492C10.8573 9.74492 11.8942 8.73809 11.8942 7.50028C11.8942 6.26153 10.8573 5.25377 9.58269 5.25377Z" fill="white"/>
</svg>
